{
	"patcher" : 	{
		"fileversion" : 1,
		"appversion" : 		{
			"major" : 8,
			"minor" : 5,
			"revision" : 3,
			"architecture" : "x64",
			"modernui" : 1
		}
,
		"classnamespace" : "box",
		"rect" : [ 34.0, 178.0, 1660.0, 905.0 ],
		"bglocked" : 0,
		"openinpresentation" : 0,
		"default_fontsize" : 12.0,
		"default_fontface" : 0,
		"default_fontname" : "Arial",
		"gridonopen" : 1,
		"gridsize" : [ 15.0, 15.0 ],
		"gridsnaponopen" : 1,
		"objectsnaponopen" : 1,
		"statusbarvisible" : 2,
		"toolbarvisible" : 1,
		"lefttoolbarpinned" : 0,
		"toptoolbarpinned" : 0,
		"righttoolbarpinned" : 0,
		"bottomtoolbarpinned" : 0,
		"toolbars_unpinned_last_save" : 0,
		"tallnewobj" : 0,
		"boxanimatetime" : 200,
		"enablehscroll" : 1,
		"enablevscroll" : 1,
		"devicewidth" : 0.0,
		"description" : "",
		"digest" : "",
		"tags" : "",
		"style" : "",
		"subpatcher_template" : "",
		"assistshowspatchername" : 0,
		"boxes" : [ 			{
				"box" : 				{
					"id" : "obj-24",
					"maxclass" : "message",
					"numinlets" : 2,
					"numoutlets" : 1,
					"outlettype" : [ "" ],
					"patching_rect" : [ 438.0, 789.0, 72.0, 22.0 ],
					"text" : "startwindow"
				}

			}
, 			{
				"box" : 				{
					"id" : "obj-18",
					"maxclass" : "newobj",
					"numinlets" : 2,
					"numoutlets" : 0,
					"patching_rect" : [ 393.5, 819.0, 35.0, 22.0 ],
					"text" : "dac~"
				}

			}
, 			{
				"box" : 				{
					"id" : "obj-17",
					"maxclass" : "gain~",
					"multichannelvariant" : 0,
					"numinlets" : 1,
					"numoutlets" : 2,
					"outlettype" : [ "signal", "" ],
					"parameter_enable" : 0,
					"patching_rect" : [ 393.5, 762.0, 169.0, 21.0 ]
				}

			}
, 			{
				"box" : 				{
					"id" : "obj-51",
					"maxclass" : "newobj",
					"numinlets" : 1,
					"numoutlets" : 1,
					"outlettype" : [ "" ],
					"patching_rect" : [ 465.5, 617.0, 83.0, 22.0 ],
					"text" : "prepend open"
				}

			}
, 			{
				"box" : 				{
					"id" : "obj-49",
					"maxclass" : "message",
					"numinlets" : 2,
					"numoutlets" : 1,
					"outlettype" : [ "" ],
					"patching_rect" : [ 465.5, 641.0, 50.0, 22.0 ],
					"text" : "open 2"
				}

			}
, 			{
				"box" : 				{
					"id" : "obj-45",
					"maxclass" : "number",
					"numinlets" : 1,
					"numoutlets" : 2,
					"outlettype" : [ "", "bang" ],
					"parameter_enable" : 0,
					"patching_rect" : [ 465.5, 593.0, 50.0, 22.0 ]
				}

			}
, 			{
				"box" : 				{
					"fontname" : "Arial",
					"fontsize" : 13.0,
					"id" : "obj-43",
					"maxclass" : "message",
					"numinlets" : 2,
					"numoutlets" : 1,
					"outlettype" : [ "" ],
					"patching_rect" : [ 393.5, 641.0, 55.0, 23.0 ],
					"text" : "note $1"
				}

			}
, 			{
				"box" : 				{
					"id" : "obj-42",
					"maxclass" : "newobj",
					"numinlets" : 3,
					"numoutlets" : 1,
					"outlettype" : [ "signal" ],
					"patching_rect" : [ 393.5, 709.0, 209.0, 22.0 ],
					"text" : "poly~ lip_synth @voices 4 @target 0"
				}

			}
, 			{
				"box" : 				{
					"fontface" : 0,
					"id" : "obj-34",
					"linecount" : 473,
					"maxclass" : "o.display",
					"numinlets" : 1,
					"numoutlets" : 1,
					"outlettype" : [ "" ],
					"patching_rect" : [ 12.5, 523.0, 366.0, 6077.0 ],
					"text" : "/fb618538-c7f2-43ef-8174-a5d4f552d62e : {\n  /type : \"facemeshCoordinates\",\n  /positions : {\n    /15 : [329.296, 359.708, -16.1158],\n    /23 : [298.874, 291.775, 7.86822],\n    /106 : [307.878, 370.956, -6.56148],\n    /165 : [309.917, 341.525, -10.0279],\n    /224 : [288.353, 271.299, 7.80258],\n    /285 : [343.455, 268.585, -5.32542],\n    /344 : [345.064, 319.128, -22.159],\n    /451 : [357.724, 296.574, 2.61889],\n    /55 : [318.285, 268.246, -3.68057],\n    /79 : [317.341, 322.533, -20.7827],\n    /138 : [274.153, 368.778, 28.7102],\n    /197 : [329.602, 290.937, -17.0964],\n    /258 : [360.09, 275.38, 2.20375],\n    /317 : [335.305, 357.263, -14.717],\n    /376 : [396.222, 338.061, 16.5373],\n    /424 : [358.471, 380.636, -6.76012],\n    /1 : [328.231, 322.097, -30.6956],\n    /28 : [303.675, 274.615, 6.07449],\n    /111 : [274.575, 298.567, 21.3523],\n    /170 : [296.213, 394.963, 4.85887],\n    /229 : [289.879, 297.491, 10.565],\n    /290 : [339.046, 328.913, -15.4558],\n    /349 : [357.071, 301.603, 0.696254],\n    /397 : [392.247, 381.781, 34.2978],\n    /456 : [339.659, 303.352, -17.932],\n    /60 : [319.807, 328.4, -14.5995],\n    /84 : [322.371, 367.4, -16.5245],\n    /143 : [269.958, 290.863, 31.0207],\n    /202 : [296.347, 371.271, 0.529376],\n    /263 : [378.932, 285.497, 10.4012],\n    /322 : [355.766, 348.14, -10.6608],\n    /381 : [354.774, 286.816, 5.43659],\n    /429 : [348.295, 314.15, -10.4605],\n    /6 : [330.092, 283.829, -11.6644],\n    /33 : [286.076, 283.749, 16.7288],\n    /116 : [268.552, 304.406, 27.7009],\n    /175 : [329.397, 408.464, -11.9537],\n    /236 : [319.533, 302.877, -16.5398],\n    /295 : [359.037, 264.236, -4.21441],\n    /354 : [331.55, 326.265, -27.9253],\n    /402 : [340.927, 357.762, -13.1987],\n    /461 : [333.532, 325.92, -27.1604],\n    /65 : [303.451, 263.542, -0.766196],\n    /89 : [313.69, 358.615, -10.0671],\n    /148 : [316.18, 413.869, -2.77859],\n    /207 : [285.123, 342.016, 4.30977],\n    /268 : [335.643, 356.661, -16.5158],\n    /327 : [347.253, 331.559, -10.2034],\n    /386 : [365.953, 279.612, 3.55728],\n    /434 : [379.657, 367.057, 3.38178],\n    /38 : [323.339, 356.203, -15.5568],\n    /121 : [312.258, 296.777, 2.49231],\n    /180 : [316.894, 361.454, -14.081],\n    /241 : [323.755, 325.678, -26.6547],\n    /300 : [391.531, 269.85, 12.2767],\n    /359 : [381.13, 286.352, 11.2686],\n    /407 : [350.32, 360.704, -8.97284],\n    /466 : [377.057, 284.246, 8.0461],\n    /70 : [274.84, 268.04, 20.0442],\n    /94 : [328.743, 328.613, -20.8417],\n    /153 : [303.976, 287.18, 8.31878],\n    /212 : [291.597, 362.271, 2.84358],\n    /273 : [358.33, 368.967, -6.60398],\n    /332 : [384.506, 236.031, 16.9341],\n    /391 : [349.971, 342.708, -12.5974],\n    /439 : [347.261, 324.932, -17.7154],\n    /43 : [302.964, 367.155, -2.90151],\n    /126 : [312.546, 308.175, -4.21276],\n    /185 : [306.935, 358.053, -5.56814],\n    /246 : [287.694, 282.54, 14.1154],\n    /305 : [342.824, 328.209, -13.714],\n    /364 : [383.904, 381.708, 13.3222],\n    /412 : [340.568, 291.011, -7.16874],\n    /16 : [329.253, 363.492, -17.7335],\n    /99 : [320.766, 330.162, -15.0306],\n    /158 : [303.501, 278.738, 7.78284],\n    /217 : [316.374, 302.461, -7.56009],\n    /278 : [349.254, 322.784, -16.9931],\n    /337 : [348.25, 240.287, -1.80167],\n    /444 : [375.85, 272.607, 1.97482],\n    /48 : [310.111, 321.833, -14.5792],\n    /131 : [313.503, 314.107, -17.6214],\n    /190 : [314.665, 280.595, 8.21659],\n    /251 : [401.983, 262.336, 37.5212],\n    /310 : [345.188, 359.105, -10.7662],\n    /369 : [355.747, 403.929, -5.77693],\n    /417 : [338.663, 278.478, -3.3144],\n    /14 : [329.385, 357, -14.9371],\n    /21 : [268.388, 260.604, 46.5894],\n    /104 : [286.265, 244.918, 13.5366],\n    /163 : [290.117, 286.033, 12.8004],\n    /222 : [303.794, 270.723, 4.20982],\n    /283 : [380.612, 267.069, 2.1445],\n    /342 : [384.515, 281.693, 9.61674],\n    /449 : [374.288, 299.193, 4.92669],\n    /53 : [283.834, 265.637, 8.39058],\n    /77 : [309.402, 360.122, -6.60428],\n    /136 : [281.702, 388.486, 29.3866],\n    /195 : [329.156, 297.745, -23.0458],\n    /256 : [353.236, 289.977, 4.27246],\n    /315 : [336.064, 363.203, -17.7453],\n    /374 : [365.034, 288.895, 4.19192],\n    /422 : [365.477, 373.555, -3.72294],\n    /26 : [310.189, 289.172, 7.34904],\n    /109 : [312.568, 223.545, 5.97367],\n    /168 : [330.507, 276.656, -6.7367],\n    /227 : [264.153, 307.831, 46.0125],\n    /288 : [399.102, 367.356, 44.9352],\n    /347 : [378.249, 307.208, 3.17505],\n    /395 : [365.73, 397.661, 0.793744],\n    /454 : [406.57, 313.413, 58.2713],\n    /58 : [270.508, 363.929, 53.477],\n    /82 : [324.351, 357.526, -13.2759],\n    /141 : [326.413, 328.302, -20.2945],\n    /200 : [329.409, 387.658, -13.4764],\n    /261 : [384.453, 295.085, 11.2555],\n    /320 : [347.843, 361.662, -13.5726],\n    /379 : [373.971, 400.938, 13.9157],\n    /427 : [377.832, 344.526, -1.4503],\n    /4 : [328.221, 314.347, -32.1312],\n    /31 : [280.935, 293.06, 18.1218],\n    /114 : [316.492, 296.383, -3.25442],\n    /173 : [312.086, 282.464, 9.39394],\n    /232 : [311.628, 292.898, 5.71499],\n    /234 : [265.372, 310.812, 67.9362],\n    /293 : [384.504, 262.44, 5.43531],\n    /352 : [397.321, 322.649, 16.1519],\n    /400 : [354.891, 411.723, -0.102387],\n    /459 : [338.182, 323.066, -25.1021],\n    /63 : [280.685, 260.928, 12.0912],\n    /87 : [323.75, 356.874, -13.7599],\n    /146 : [307.839, 361.934, -5.62629],\n    /205 : [290.307, 329.057, 0.612185],\n    /266 : [361.9, 321.494, -5.19836],\n    /325 : [350.03, 360.306, -9.52088],\n    /384 : [355.31, 280.879, 4.92415],\n    /432 : [370.711, 364.703, -2.24772],\n    /9 : [330.69, 259.776, -6.76667],\n    /36 : [299.946, 319.987, -1.27447],\n    /119 : [297.223, 303.801, 5.84149],\n    /178 : [318.714, 357.039, -11.4788],\n    /239 : [319.551, 322.568, -23.9342],\n    /298 : [389.556, 254.446, 14.9559],\n    /357 : [345.304, 293.04, -0.357331],\n    /405 : [343.335, 366.643, -15.6879],\n    /464 : [343.676, 286.507, 2.98132],\n    /68 : [277.262, 252.996, 22.2928],\n    /92 : [304.767, 346.582, -7.34842],\n    /151 : [331.149, 240.278, -2.02447],\n    /210 : [290.637, 377.957, 5.94173],\n    /271 : [341.497, 357.82, -14.8353],\n    /330 : [366.666, 312.918, -1.92241],\n    /389 : [405.517, 277.536, 48.069],\n    /437 : [344.369, 303.095, -9.56142],\n    /41 : [318.134, 356.961, -13.0175],\n    /124 : [276.073, 279.196, 19.9576],\n    /183 : [310.72, 359.461, -5.90659],\n    /244 : [319.033, 286.078, 4.75642],\n    /303 : [342.798, 355.56, -15.9521],\n    /362 : [349.956, 285.094, 7.16741],\n    /410 : [360.672, 355.095, -7.75305],\n    /73 : [316.568, 354.617, -13.9398],\n    /97 : [321.666, 331.757, -15.1958],\n    /156 : [272.207, 278.243, 26.3779],\n    /215 : [268.784, 355.39, 38.4098],\n    /276 : [387.311, 272.634, 6.98832],\n    /335 : [352.79, 372.558, -9.54504],\n    /442 : [359.399, 271.548, 0.485798],\n    /46 : [278.181, 270.907, 14.2428],\n    /129 : [309.143, 323.04, -3.71606],\n    /188 : [320.522, 290.657, -5.71716],\n    /249 : [376.759, 286.859, 8.58391],\n    /308 : [352.562, 360.899, -6.71679],\n    /367 : [392.141, 372.296, 21.2222],\n    /415 : [349.167, 359.815, -8.36622],\n    /10 : [331.669, 222.777, 3.38958],\n    /13 : [329.538, 357.746, -14.3848],\n    /19 : [328.439, 326.446, -28.035],\n    /102 : [309.262, 321.952, -9.47627],\n    /161 : [289.658, 281.188, 12.1063],\n    /220 : [317.635, 315.989, -25.8804],\n    /281 : [334.429, 306.262, -27.683],\n    /340 : [391.361, 300.84, 13.781],\n    /447 : [405.156, 310.538, 36.4768],\n    /51 : [323.129, 305.976, -26.8226],\n    /75 : [316.424, 327.501, -12.2359],\n    /134 : [318.192, 309.173, -23.2386],\n    /193 : [323.036, 278.241, -2.20801],\n    /254 : [371.037, 293.014, 4.41415],\n    /313 : [337.473, 377.82, -12.7623],\n    /372 : [397.622, 293.178, 22.5975],\n    /420 : [344.33, 309.185, -13.8773],\n    /24 : [293.111, 291.428, 9.83305],\n    /107 : [316.218, 258.468, -5.12427],\n    /166 : [314.349, 324.519, -15.0012],\n    /225 : [283.409, 274.409, 11.7412],\n    /286 : [354.311, 277.011, 4.18172],\n    /345 : [398.472, 306.916, 19.1813],\n    /452 : [351.469, 293.668, 2.90531],\n    /56 : [309.357, 276.396, 7.34224],\n    /80 : [315.487, 358.107, -8.42424],\n    /139 : [268.406, 277.24, 40.9362],\n    /198 : [315.65, 308.49, -12.0369],\n    /259 : [372.796, 276.686, 2.90372],\n    /318 : [345.772, 358.857, -11.1902],\n    /377 : [343.761, 415.037, -4.42657],\n    /425 : [372.083, 331.153, -4.40959],\n    /2 : [329.059, 331.601, -17.1565],\n    /29 : [291.544, 275.443, 8.6109],\n    /112 : [313.492, 287.12, 8.1426],\n    /171 : [315.61, 406.719, -9.56806],\n    /230 : [297.846, 297.346, 7.57581],\n    /291 : [355.782, 362.235, -5.13402],\n    /350 : [350.322, 297.541, -0.179983],\n    /398 : [351.55, 283.198, 6.22482],\n    /457 : [338.087, 321.556, -27.7796],\n    /61 : [305.585, 360.673, -1.29795],\n    /85 : [322.692, 362.708, -16.6895],\n    /144 : [293.551, 286.987, 10.6531],\n    /203 : [304.21, 329.424, -2.7546],\n    /264 : [404.226, 294.678, 36.3364],\n    /323 : [405.883, 330.362, 56.8329],\n    /382 : [351.593, 285.962, 6.8916],\n    /430 : [371.931, 380.788, 1.09244],\n    /7 : [287.914, 285.122, 14.6514],\n    /34 : [265.405, 292.298, 45.5566],\n    /117 : [278.259, 303.17, 15.4098],\n    /176 : [306.071, 409.69, 2.98257],\n    /237 : [319.259, 321.05, -26.6639],\n    /296 : [360.332, 257.87, -4.81938],\n    /355 : [348.685, 309.007, -6.75294],\n    /403 : [341.706, 359.443, -14.5923],\n    /462 : [333.136, 328.043, -20.5963],\n    /66 : [302.224, 257.165, -1.25642],\n    /90 : [312.361, 360.538, -11.179],\n    /149 : [297.73, 404.156, 11.1762],\n    /208 : [316.751, 397.536, -12.0047],\n    /269 : [344.663, 352.114, -16.2725],\n    /328 : [337.91, 330.64, -15.9018],\n    /387 : [371.365, 280.9, 4.59657],\n    /435 : [398.969, 358.847, 29.9199],\n    /39 : [314.654, 351.044, -14.1673],\n    /122 : [324.31, 285.933, -9.07266],\n    /181 : [316.09, 365.688, -13.711],\n    /242 : [324.63, 327.796, -20.1351],\n    /301 : [396.649, 266.252, 24.1831],\n    /360 : [345.635, 314.863, -19.6366],\n    /408 : [352.146, 360.389, -9.14083],\n    /467 : [380.565, 282.076, 8.14979],\n    /71 : [271.586, 264.408, 32.5526],\n    /95 : [311.992, 358.742, -5.75237],\n    /154 : [308.846, 286.049, 8.85574],\n    /213 : [271.316, 348.088, 25.2481],\n    /274 : [333.485, 322.191, -30.4277],\n    /333 : [379.084, 246.013, 7.61217],\n    /392 : [344.577, 325.249, -16.6928],\n    /440 : [339.951, 316.507, -27.3075],\n    /44 : [323.212, 321.921, -29.8924],\n    /127 : [264.886, 293.91, 65.4535],\n    /186 : [300.488, 353.305, -3.62184],\n    /247 : [284.521, 280.404, 14.5957],\n    /306 : [354.303, 361.899, -5.88912],\n    /365 : [384.323, 391.995, 22.9728],\n    /413 : [344.468, 279.641, 3.7668],\n    /12 : [329.296, 356.284, -16.8887],\n    /17 : [329.283, 367.987, -17.4294],\n    /100 : [305.893, 306.217, 0.809589],\n    /159 : [298.288, 278.448, 8.35299],\n    /218 : [315.361, 321.34, -21.6997],\n    /279 : [349.848, 319.237, -15.0271],\n    /338 : [351.354, 223.849, 3.5879],\n    /445 : [381.429, 275.992, 5.19079],\n    /49 : [309.997, 318.264, -12.4914],\n    /132 : [266.945, 345.387, 61.5327],\n    /191 : [312.106, 358.653, -5.46983],\n    /252 : [358.606, 292.195, 3.25556],\n    /311 : [340.435, 358.328, -12.6689],\n    /370 : [331.158, 328.39, -20.5461],\n    /418 : [350.136, 385.196, -9.82575],\n    /22 : [304.996, 291.167, 7.15107],\n    /105 : [290.046, 256.985, 5.31733],\n    /164 : [329.157, 337.332, -16.4749],\n    /223 : [295.359, 270.141, 5.03925],\n    /284 : [395.166, 247.763, 27.5353],\n    /343 : [345.138, 296.995, -5.3485],\n    /450 : [365.771, 298.698, 2.95659],\n    /54 : [273.707, 246.419, 35.7566],\n    /78 : [309.092, 359.543, -3.3657],\n    /137 : [264.613, 323.812, 45.5997],\n    /196 : [324.049, 292.721, -15.423],\n    /257 : [366.662, 275.381, 1.53775],\n    /316 : [335.678, 359.51, -15.9865],\n    /375 : [353.072, 363.36, -8.89325],\n    /423 : [356.925, 330.852, -5.99507],\n    /0 : [329.114, 349.458, -19.1727],\n    /27 : [297.381, 274.397, 6.45092],\n    /110 : [288.394, 290.448, 12.6837],\n    /169 : [288.556, 387.665, 12.0794],\n    /228 : [283.946, 295.803, 14.7039],\n    /289 : [344.505, 326.749, -14.7858],\n    /348 : [365.983, 305.213, 1.18464],\n    /396 : [343.637, 407.831, -11.2066],\n    /455 : [347.086, 327.325, -14.9811],\n    /59 : [314.72, 325.966, -12.9876],\n    /83 : [321.894, 377.188, -11.8487],\n    /142 : [307.281, 314.031, -2.27901],\n    /201 : [319.358, 387.014, -11.732],\n    /262 : [353.806, 394.57, -8.30639],\n    /321 : [349.115, 364.549, -12.9386],\n    /380 : [359.766, 288.226, 4.28535],\n    /428 : [342.271, 398.538, -13.5269],\n    /5 : [328.641, 305.062, -29.0975],\n    /32 : [306.348, 392.708, -5.53582],\n    /115 : [313.458, 318.394, -20.1952],\n    /174 : [320.004, 297.015, -11.5155],\n    /233 : [315.764, 290.213, 5.31668],\n    /235 : [312.337, 326.386, -12.9528],\n    /294 : [349.491, 326.624, -14.1304],\n    /353 : [390.095, 281.151, 12.2997],\n    /401 : [402.299, 343.576, 33.9559],\n    /460 : [345.234, 329.841, -13.135],\n    /64 : [310.279, 325.616, -11.7286],\n    /88 : [314.554, 357.835, -8.82039],\n    /147 : [269.916, 335.037, 24.7489],\n    /206 : [298.519, 337.236, -2.41124],\n    /267 : [336.657, 348.722, -18.8207],\n    /326 : [336.866, 332.233, -16.1319],\n    /385 : [360.677, 279.678, 3.68294],\n    /433 : [394.764, 351.316, 17.3952],\n    /37 : [321.883, 348.258, -17.7725],\n    /120 : [305.797, 300.545, 4.2507],\n    /179 : [317.819, 358.63, -12.8006],\n    /240 : [314.3, 328.967, -11.4615],\n    /299 : [363.66, 241.655, 1.42402],\n    /358 : [351.669, 324.168, -6.30759],\n    /406 : [345.88, 375.655, -12.1223],\n    /465 : [341.476, 287.058, -1.2229],\n    /69 : [299.987, 241.06, 5.51362],\n    /93 : [265.543, 327.446, 66.2692],\n    /152 : [329.758, 415.655, -5.46234],\n    /211 : [298.426, 385.984, 0.691647],\n    /272 : [346.201, 359.395, -11.6797],\n    /331 : [350.932, 323.008, -12.0813],\n    /390 : [374.238, 287.697, 7.04399],\n    /438 : [342.844, 321.966, -23.5031],\n    /42 : [314.09, 358.332, -9.23577],\n    /125 : [325.494, 326.142, -27.4881],\n    /184 : [308.792, 358.987, -5.8221],\n    /245 : [320.574, 286.717, 0.258941],\n    /304 : [348.009, 357.98, -12.8755],\n    /363 : [340.099, 309.705, -24.7027],\n    /411 : [386.922, 340.28, 5.1001],\n    /11 : [329.133, 353.267, -18.6669],\n    /98 : [312.641, 330.558, -8.33131],\n    /157 : [308.581, 280.092, 8.49278],\n    /216 : [293.829, 348.006, -0.470119],\n    /277 : [349.706, 302.325, -3.8206],\n    /336 : [345.496, 258.748, -6.89532],\n    /443 : [368.22, 271.163, 0.250205],\n    /47 : [312.241, 301.548, -1.20519],\n    /130 : [284.155, 284.521, 17.9124],\n    /189 : [318.311, 279.212, 5.65395],\n    /250 : [334.502, 326.966, -20.6747],\n    /309 : [340.827, 323.13, -22.4654],\n    /368 : [400.65, 279.31, 32.0441],\n    /416 : [388.356, 359.729, 11.6492],\n    /20 : [323.464, 326.669, -19.9983],\n    /103 : [282.591, 235.029, 23.6258],\n    /162 : [265.732, 275.527, 57.6291],\n    /221 : [313.586, 273.982, 4.65224],\n    /282 : [371.325, 264.179, -1.64831],\n    /341 : [349.828, 287.765, 5.41598],\n    /448 : [380.886, 297.83, 8.29963],\n    /52 : [292.16, 263.138, 3.34882],\n    /76 : [307.102, 360.398, -2.30179],\n    /135 : [280.903, 378.303, 19.6678],\n    /194 : [310.028, 383.656, -7.40516],\n    /255 : [379.167, 290.079, 8.96318],\n    /314 : [336.517, 367.967, -17.5541],\n    /373 : [370.523, 288.479, 5.36776],\n    /421 : [339.844, 387.821, -12.8827],\n    /25 : [285.872, 288.206, 15.3271],\n    /108 : [314.423, 239.984, 0.29377],\n    /167 : [321.047, 338.079, -15.6071],\n    /226 : [279.955, 286.606, 20.3568],\n    /287 : [363.337, 362.878, -4.68828],\n    /346 : [386.727, 305.388, 8.23015],\n    /394 : [374.78, 390.813, 6.9052],\n    /453 : [347.118, 290.784, 3.00955],\n    /57 : [298.383, 360.878, -0.233639],\n    /81 : [319.58, 357.602, -10.9693],\n    /140 : [304.644, 401.887, -2.74103],\n    /199 : [329.296, 398.868, -14.5245],\n    /260 : [377.044, 279.175, 5.05966],\n    /319 : [346.585, 359.666, -12.3991],\n    /378 : [364.774, 406.811, 6.96776],\n    /426 : [362.945, 338.99, -6.42804],\n    /3 : [323.977, 299.021, -20.6789],\n    /30 : [287.614, 277.689, 11.1593],\n    /113 : [280.943, 279.864, 16.6573],\n    /172 : [275.616, 378.208, 41.9187],\n    /231 : [305.587, 295.535, 6.2865],\n    /292 : [353.044, 361.323, -6.52181],\n    /351 : [336.24, 286.128, -9.92719],\n    /399 : [340.139, 297.431, -12.9127],\n    /458 : [334.715, 325.433, -25.6267],\n    /62 : [308.412, 359.927, -3.13136],\n    /86 : [323.181, 359.043, -14.9677],\n    /145 : [298.785, 287.63, 8.86391],\n    /204 : [302.584, 378.613, -3.37358],\n    /265 : [391.945, 291.093, 17.1331],\n    /324 : [349.007, 359.894, -8.70266],\n    /383 : [395.009, 280.286, 18.1626],\n    /431 : [362.978, 388.427, -3.02338],\n    /8 : [330.575, 269.323, -6.44158],\n    /35 : [274.62, 288.93, 24.8581],\n    /118 : [285.737, 305.262, 9.23539],\n    /177 : [266.157, 340.326, 42.8653],\n    /238 : [322.885, 325.128, -24.9886],\n    /297 : [368.412, 227.803, 8.19221],\n    /356 : [407.037, 296.23, 55.7186],\n    /404 : [342.532, 362.325, -16.0117],\n    /463 : [347.509, 285.322, 6.41918],\n    /67 : [296.784, 227.211, 12.9491],\n    /91 : [311.119, 363.308, -10.2975],\n    /150 : [290.13, 397.723, 19.1363],\n    /209 : [312.305, 313.288, -8.10672],\n    /270 : [350.012, 356.307, -12.9994],\n    /329 : [356.397, 307.315, -2.63191],\n    /388 : [374.901, 282.766, 6.28047],\n    /436 : [368.124, 350.103, -5.20658],\n    /40 : [310.157, 354.974, -10.0928],\n    /123 : [268.979, 319.835, 24.6531],\n    /182 : [314.107, 374.457, -9.90504],\n    /243 : [315.72, 284.77, 8.79386],\n    /302 : [336.226, 353.321, -18.3824],\n    /361 : [403.817, 348.635, 52.4908],\n    /409 : [354.02, 359.484, -9.11731],\n    /72 : [322.437, 352.831, -17.3687],\n    /96 : [310.818, 359.06, -6.58502],\n    /155 : [311.973, 285.241, 9.92229],\n    /214 : [283.827, 364.101, 9.26555],\n    /275 : [334.343, 314.884, -31.7291],\n    /334 : [373.783, 258.039, 0.0162912],\n    /393 : [337.656, 338.578, -16.6825],\n    /441 : [349.299, 274.559, 2.06568],\n    /45 : [322.389, 314.595, -31.0783],\n    /128 : [317.001, 292.515, 1.733],\n    /187 : [277.408, 337.505, 12.0402],\n    /248 : [334.577, 299.294, -21.4823],\n    /307 : [351.471, 361.478, -9.68661],\n    /366 : [404.261, 326.784, 36.2841],\n    /414 : [348.66, 281.169, 5.54247],\n    /18 : [329.554, 377.688, -12.4747],\n    /101 : [296.018, 311.331, 2.70844],\n    /160 : [293.051, 279.476, 10.043],\n    /219 : [311.863, 324.053, -15.6393],\n    /280 : [381.624, 322.834, 1.0256],\n    /339 : [376.249, 292.2, 6.66608],\n    /446 : [385.834, 288.604, 13.313],\n    /50 : [282.071, 320.533, 7.47904],\n    /74 : [312.148, 356.779, -10.2271],\n    /133 : [313.595, 284.434, 10.0013],\n    /192 : [276.62, 356.578, 18.6745],\n    /253 : [364.964, 293.107, 3.19146],\n    /312 : [335.098, 357.914, -14.2063],\n    /371 : [354.317, 315.15, -5.36491],\n    /419 : [335.497, 292.932, -16.1718]\n  }\n}"
				}

			}
, 			{
				"box" : 				{
					"id" : "obj-30",
					"maxclass" : "newobj",
					"numinlets" : 1,
					"numoutlets" : 1,
					"outlettype" : [ "" ],
					"patcher" : 					{
						"fileversion" : 1,
						"appversion" : 						{
							"major" : 8,
							"minor" : 5,
							"revision" : 3,
							"architecture" : "x64",
							"modernui" : 1
						}
,
						"classnamespace" : "box",
						"rect" : [ 34.0, 118.0, 1372.0, 748.0 ],
						"bglocked" : 0,
						"openinpresentation" : 0,
						"default_fontsize" : 12.0,
						"default_fontface" : 0,
						"default_fontname" : "Arial",
						"gridonopen" : 1,
						"gridsize" : [ 15.0, 15.0 ],
						"gridsnaponopen" : 1,
						"objectsnaponopen" : 1,
						"statusbarvisible" : 2,
						"toolbarvisible" : 1,
						"lefttoolbarpinned" : 0,
						"toptoolbarpinned" : 0,
						"righttoolbarpinned" : 0,
						"bottomtoolbarpinned" : 0,
						"toolbars_unpinned_last_save" : 0,
						"tallnewobj" : 0,
						"boxanimatetime" : 200,
						"enablehscroll" : 1,
						"enablevscroll" : 1,
						"devicewidth" : 0.0,
						"description" : "",
						"digest" : "",
						"tags" : "",
						"style" : "",
						"subpatcher_template" : "",
						"assistshowspatchername" : 0,
						"boxes" : [ 							{
								"box" : 								{
									"id" : "obj-4",
									"maxclass" : "newobj",
									"numinlets" : 1,
									"numoutlets" : 2,
									"outlettype" : [ "", "FullPacket" ],
									"patching_rect" : [ 50.0, 53.0, 76.0, 22.0 ],
									"text" : "o.route /data"
								}

							}
, 							{
								"box" : 								{
									"comment" : "",
									"id" : "obj-3",
									"index" : 1,
									"maxclass" : "outlet",
									"numinlets" : 1,
									"numoutlets" : 0,
									"patching_rect" : [ 50.0, 247.0, 30.0, 30.0 ]
								}

							}
, 							{
								"box" : 								{
									"fontface" : 0,
									"id" : "obj-2",
									"linecount" : 473,
									"maxclass" : "o.display",
									"numinlets" : 1,
									"numoutlets" : 1,
									"outlettype" : [ "" ],
									"patching_rect" : [ 92.0, 98.0, 674.0, 6077.0 ],
									"text" : "/fb618538-c7f2-43ef-8174-a5d4f552d62e : {\n  /type : \"facemeshCoordinates\",\n  /positions : {\n    /15 : [329.296, 359.708, -16.1158],\n    /23 : [298.874, 291.775, 7.86822],\n    /106 : [307.878, 370.956, -6.56148],\n    /165 : [309.917, 341.525, -10.0279],\n    /224 : [288.353, 271.299, 7.80258],\n    /285 : [343.455, 268.585, -5.32542],\n    /344 : [345.064, 319.128, -22.159],\n    /451 : [357.724, 296.574, 2.61889],\n    /55 : [318.285, 268.246, -3.68057],\n    /79 : [317.341, 322.533, -20.7827],\n    /138 : [274.153, 368.778, 28.7102],\n    /197 : [329.602, 290.937, -17.0964],\n    /258 : [360.09, 275.38, 2.20375],\n    /317 : [335.305, 357.263, -14.717],\n    /376 : [396.222, 338.061, 16.5373],\n    /424 : [358.471, 380.636, -6.76012],\n    /1 : [328.231, 322.097, -30.6956],\n    /28 : [303.675, 274.615, 6.07449],\n    /111 : [274.575, 298.567, 21.3523],\n    /170 : [296.213, 394.963, 4.85887],\n    /229 : [289.879, 297.491, 10.565],\n    /290 : [339.046, 328.913, -15.4558],\n    /349 : [357.071, 301.603, 0.696254],\n    /397 : [392.247, 381.781, 34.2978],\n    /456 : [339.659, 303.352, -17.932],\n    /60 : [319.807, 328.4, -14.5995],\n    /84 : [322.371, 367.4, -16.5245],\n    /143 : [269.958, 290.863, 31.0207],\n    /202 : [296.347, 371.271, 0.529376],\n    /263 : [378.932, 285.497, 10.4012],\n    /322 : [355.766, 348.14, -10.6608],\n    /381 : [354.774, 286.816, 5.43659],\n    /429 : [348.295, 314.15, -10.4605],\n    /6 : [330.092, 283.829, -11.6644],\n    /33 : [286.076, 283.749, 16.7288],\n    /116 : [268.552, 304.406, 27.7009],\n    /175 : [329.397, 408.464, -11.9537],\n    /236 : [319.533, 302.877, -16.5398],\n    /295 : [359.037, 264.236, -4.21441],\n    /354 : [331.55, 326.265, -27.9253],\n    /402 : [340.927, 357.762, -13.1987],\n    /461 : [333.532, 325.92, -27.1604],\n    /65 : [303.451, 263.542, -0.766196],\n    /89 : [313.69, 358.615, -10.0671],\n    /148 : [316.18, 413.869, -2.77859],\n    /207 : [285.123, 342.016, 4.30977],\n    /268 : [335.643, 356.661, -16.5158],\n    /327 : [347.253, 331.559, -10.2034],\n    /386 : [365.953, 279.612, 3.55728],\n    /434 : [379.657, 367.057, 3.38178],\n    /38 : [323.339, 356.203, -15.5568],\n    /121 : [312.258, 296.777, 2.49231],\n    /180 : [316.894, 361.454, -14.081],\n    /241 : [323.755, 325.678, -26.6547],\n    /300 : [391.531, 269.85, 12.2767],\n    /359 : [381.13, 286.352, 11.2686],\n    /407 : [350.32, 360.704, -8.97284],\n    /466 : [377.057, 284.246, 8.0461],\n    /70 : [274.84, 268.04, 20.0442],\n    /94 : [328.743, 328.613, -20.8417],\n    /153 : [303.976, 287.18, 8.31878],\n    /212 : [291.597, 362.271, 2.84358],\n    /273 : [358.33, 368.967, -6.60398],\n    /332 : [384.506, 236.031, 16.9341],\n    /391 : [349.971, 342.708, -12.5974],\n    /439 : [347.261, 324.932, -17.7154],\n    /43 : [302.964, 367.155, -2.90151],\n    /126 : [312.546, 308.175, -4.21276],\n    /185 : [306.935, 358.053, -5.56814],\n    /246 : [287.694, 282.54, 14.1154],\n    /305 : [342.824, 328.209, -13.714],\n    /364 : [383.904, 381.708, 13.3222],\n    /412 : [340.568, 291.011, -7.16874],\n    /16 : [329.253, 363.492, -17.7335],\n    /99 : [320.766, 330.162, -15.0306],\n    /158 : [303.501, 278.738, 7.78284],\n    /217 : [316.374, 302.461, -7.56009],\n    /278 : [349.254, 322.784, -16.9931],\n    /337 : [348.25, 240.287, -1.80167],\n    /444 : [375.85, 272.607, 1.97482],\n    /48 : [310.111, 321.833, -14.5792],\n    /131 : [313.503, 314.107, -17.6214],\n    /190 : [314.665, 280.595, 8.21659],\n    /251 : [401.983, 262.336, 37.5212],\n    /310 : [345.188, 359.105, -10.7662],\n    /369 : [355.747, 403.929, -5.77693],\n    /417 : [338.663, 278.478, -3.3144],\n    /14 : [329.385, 357, -14.9371],\n    /21 : [268.388, 260.604, 46.5894],\n    /104 : [286.265, 244.918, 13.5366],\n    /163 : [290.117, 286.033, 12.8004],\n    /222 : [303.794, 270.723, 4.20982],\n    /283 : [380.612, 267.069, 2.1445],\n    /342 : [384.515, 281.693, 9.61674],\n    /449 : [374.288, 299.193, 4.92669],\n    /53 : [283.834, 265.637, 8.39058],\n    /77 : [309.402, 360.122, -6.60428],\n    /136 : [281.702, 388.486, 29.3866],\n    /195 : [329.156, 297.745, -23.0458],\n    /256 : [353.236, 289.977, 4.27246],\n    /315 : [336.064, 363.203, -17.7453],\n    /374 : [365.034, 288.895, 4.19192],\n    /422 : [365.477, 373.555, -3.72294],\n    /26 : [310.189, 289.172, 7.34904],\n    /109 : [312.568, 223.545, 5.97367],\n    /168 : [330.507, 276.656, -6.7367],\n    /227 : [264.153, 307.831, 46.0125],\n    /288 : [399.102, 367.356, 44.9352],\n    /347 : [378.249, 307.208, 3.17505],\n    /395 : [365.73, 397.661, 0.793744],\n    /454 : [406.57, 313.413, 58.2713],\n    /58 : [270.508, 363.929, 53.477],\n    /82 : [324.351, 357.526, -13.2759],\n    /141 : [326.413, 328.302, -20.2945],\n    /200 : [329.409, 387.658, -13.4764],\n    /261 : [384.453, 295.085, 11.2555],\n    /320 : [347.843, 361.662, -13.5726],\n    /379 : [373.971, 400.938, 13.9157],\n    /427 : [377.832, 344.526, -1.4503],\n    /4 : [328.221, 314.347, -32.1312],\n    /31 : [280.935, 293.06, 18.1218],\n    /114 : [316.492, 296.383, -3.25442],\n    /173 : [312.086, 282.464, 9.39394],\n    /232 : [311.628, 292.898, 5.71499],\n    /234 : [265.372, 310.812, 67.9362],\n    /293 : [384.504, 262.44, 5.43531],\n    /352 : [397.321, 322.649, 16.1519],\n    /400 : [354.891, 411.723, -0.102387],\n    /459 : [338.182, 323.066, -25.1021],\n    /63 : [280.685, 260.928, 12.0912],\n    /87 : [323.75, 356.874, -13.7599],\n    /146 : [307.839, 361.934, -5.62629],\n    /205 : [290.307, 329.057, 0.612185],\n    /266 : [361.9, 321.494, -5.19836],\n    /325 : [350.03, 360.306, -9.52088],\n    /384 : [355.31, 280.879, 4.92415],\n    /432 : [370.711, 364.703, -2.24772],\n    /9 : [330.69, 259.776, -6.76667],\n    /36 : [299.946, 319.987, -1.27447],\n    /119 : [297.223, 303.801, 5.84149],\n    /178 : [318.714, 357.039, -11.4788],\n    /239 : [319.551, 322.568, -23.9342],\n    /298 : [389.556, 254.446, 14.9559],\n    /357 : [345.304, 293.04, -0.357331],\n    /405 : [343.335, 366.643, -15.6879],\n    /464 : [343.676, 286.507, 2.98132],\n    /68 : [277.262, 252.996, 22.2928],\n    /92 : [304.767, 346.582, -7.34842],\n    /151 : [331.149, 240.278, -2.02447],\n    /210 : [290.637, 377.957, 5.94173],\n    /271 : [341.497, 357.82, -14.8353],\n    /330 : [366.666, 312.918, -1.92241],\n    /389 : [405.517, 277.536, 48.069],\n    /437 : [344.369, 303.095, -9.56142],\n    /41 : [318.134, 356.961, -13.0175],\n    /124 : [276.073, 279.196, 19.9576],\n    /183 : [310.72, 359.461, -5.90659],\n    /244 : [319.033, 286.078, 4.75642],\n    /303 : [342.798, 355.56, -15.9521],\n    /362 : [349.956, 285.094, 7.16741],\n    /410 : [360.672, 355.095, -7.75305],\n    /73 : [316.568, 354.617, -13.9398],\n    /97 : [321.666, 331.757, -15.1958],\n    /156 : [272.207, 278.243, 26.3779],\n    /215 : [268.784, 355.39, 38.4098],\n    /276 : [387.311, 272.634, 6.98832],\n    /335 : [352.79, 372.558, -9.54504],\n    /442 : [359.399, 271.548, 0.485798],\n    /46 : [278.181, 270.907, 14.2428],\n    /129 : [309.143, 323.04, -3.71606],\n    /188 : [320.522, 290.657, -5.71716],\n    /249 : [376.759, 286.859, 8.58391],\n    /308 : [352.562, 360.899, -6.71679],\n    /367 : [392.141, 372.296, 21.2222],\n    /415 : [349.167, 359.815, -8.36622],\n    /10 : [331.669, 222.777, 3.38958],\n    /13 : [329.538, 357.746, -14.3848],\n    /19 : [328.439, 326.446, -28.035],\n    /102 : [309.262, 321.952, -9.47627],\n    /161 : [289.658, 281.188, 12.1063],\n    /220 : [317.635, 315.989, -25.8804],\n    /281 : [334.429, 306.262, -27.683],\n    /340 : [391.361, 300.84, 13.781],\n    /447 : [405.156, 310.538, 36.4768],\n    /51 : [323.129, 305.976, -26.8226],\n    /75 : [316.424, 327.501, -12.2359],\n    /134 : [318.192, 309.173, -23.2386],\n    /193 : [323.036, 278.241, -2.20801],\n    /254 : [371.037, 293.014, 4.41415],\n    /313 : [337.473, 377.82, -12.7623],\n    /372 : [397.622, 293.178, 22.5975],\n    /420 : [344.33, 309.185, -13.8773],\n    /24 : [293.111, 291.428, 9.83305],\n    /107 : [316.218, 258.468, -5.12427],\n    /166 : [314.349, 324.519, -15.0012],\n    /225 : [283.409, 274.409, 11.7412],\n    /286 : [354.311, 277.011, 4.18172],\n    /345 : [398.472, 306.916, 19.1813],\n    /452 : [351.469, 293.668, 2.90531],\n    /56 : [309.357, 276.396, 7.34224],\n    /80 : [315.487, 358.107, -8.42424],\n    /139 : [268.406, 277.24, 40.9362],\n    /198 : [315.65, 308.49, -12.0369],\n    /259 : [372.796, 276.686, 2.90372],\n    /318 : [345.772, 358.857, -11.1902],\n    /377 : [343.761, 415.037, -4.42657],\n    /425 : [372.083, 331.153, -4.40959],\n    /2 : [329.059, 331.601, -17.1565],\n    /29 : [291.544, 275.443, 8.6109],\n    /112 : [313.492, 287.12, 8.1426],\n    /171 : [315.61, 406.719, -9.56806],\n    /230 : [297.846, 297.346, 7.57581],\n    /291 : [355.782, 362.235, -5.13402],\n    /350 : [350.322, 297.541, -0.179983],\n    /398 : [351.55, 283.198, 6.22482],\n    /457 : [338.087, 321.556, -27.7796],\n    /61 : [305.585, 360.673, -1.29795],\n    /85 : [322.692, 362.708, -16.6895],\n    /144 : [293.551, 286.987, 10.6531],\n    /203 : [304.21, 329.424, -2.7546],\n    /264 : [404.226, 294.678, 36.3364],\n    /323 : [405.883, 330.362, 56.8329],\n    /382 : [351.593, 285.962, 6.8916],\n    /430 : [371.931, 380.788, 1.09244],\n    /7 : [287.914, 285.122, 14.6514],\n    /34 : [265.405, 292.298, 45.5566],\n    /117 : [278.259, 303.17, 15.4098],\n    /176 : [306.071, 409.69, 2.98257],\n    /237 : [319.259, 321.05, -26.6639],\n    /296 : [360.332, 257.87, -4.81938],\n    /355 : [348.685, 309.007, -6.75294],\n    /403 : [341.706, 359.443, -14.5923],\n    /462 : [333.136, 328.043, -20.5963],\n    /66 : [302.224, 257.165, -1.25642],\n    /90 : [312.361, 360.538, -11.179],\n    /149 : [297.73, 404.156, 11.1762],\n    /208 : [316.751, 397.536, -12.0047],\n    /269 : [344.663, 352.114, -16.2725],\n    /328 : [337.91, 330.64, -15.9018],\n    /387 : [371.365, 280.9, 4.59657],\n    /435 : [398.969, 358.847, 29.9199],\n    /39 : [314.654, 351.044, -14.1673],\n    /122 : [324.31, 285.933, -9.07266],\n    /181 : [316.09, 365.688, -13.711],\n    /242 : [324.63, 327.796, -20.1351],\n    /301 : [396.649, 266.252, 24.1831],\n    /360 : [345.635, 314.863, -19.6366],\n    /408 : [352.146, 360.389, -9.14083],\n    /467 : [380.565, 282.076, 8.14979],\n    /71 : [271.586, 264.408, 32.5526],\n    /95 : [311.992, 358.742, -5.75237],\n    /154 : [308.846, 286.049, 8.85574],\n    /213 : [271.316, 348.088, 25.2481],\n    /274 : [333.485, 322.191, -30.4277],\n    /333 : [379.084, 246.013, 7.61217],\n    /392 : [344.577, 325.249, -16.6928],\n    /440 : [339.951, 316.507, -27.3075],\n    /44 : [323.212, 321.921, -29.8924],\n    /127 : [264.886, 293.91, 65.4535],\n    /186 : [300.488, 353.305, -3.62184],\n    /247 : [284.521, 280.404, 14.5957],\n    /306 : [354.303, 361.899, -5.88912],\n    /365 : [384.323, 391.995, 22.9728],\n    /413 : [344.468, 279.641, 3.7668],\n    /12 : [329.296, 356.284, -16.8887],\n    /17 : [329.283, 367.987, -17.4294],\n    /100 : [305.893, 306.217, 0.809589],\n    /159 : [298.288, 278.448, 8.35299],\n    /218 : [315.361, 321.34, -21.6997],\n    /279 : [349.848, 319.237, -15.0271],\n    /338 : [351.354, 223.849, 3.5879],\n    /445 : [381.429, 275.992, 5.19079],\n    /49 : [309.997, 318.264, -12.4914],\n    /132 : [266.945, 345.387, 61.5327],\n    /191 : [312.106, 358.653, -5.46983],\n    /252 : [358.606, 292.195, 3.25556],\n    /311 : [340.435, 358.328, -12.6689],\n    /370 : [331.158, 328.39, -20.5461],\n    /418 : [350.136, 385.196, -9.82575],\n    /22 : [304.996, 291.167, 7.15107],\n    /105 : [290.046, 256.985, 5.31733],\n    /164 : [329.157, 337.332, -16.4749],\n    /223 : [295.359, 270.141, 5.03925],\n    /284 : [395.166, 247.763, 27.5353],\n    /343 : [345.138, 296.995, -5.3485],\n    /450 : [365.771, 298.698, 2.95659],\n    /54 : [273.707, 246.419, 35.7566],\n    /78 : [309.092, 359.543, -3.3657],\n    /137 : [264.613, 323.812, 45.5997],\n    /196 : [324.049, 292.721, -15.423],\n    /257 : [366.662, 275.381, 1.53775],\n    /316 : [335.678, 359.51, -15.9865],\n    /375 : [353.072, 363.36, -8.89325],\n    /423 : [356.925, 330.852, -5.99507],\n    /0 : [329.114, 349.458, -19.1727],\n    /27 : [297.381, 274.397, 6.45092],\n    /110 : [288.394, 290.448, 12.6837],\n    /169 : [288.556, 387.665, 12.0794],\n    /228 : [283.946, 295.803, 14.7039],\n    /289 : [344.505, 326.749, -14.7858],\n    /348 : [365.983, 305.213, 1.18464],\n    /396 : [343.637, 407.831, -11.2066],\n    /455 : [347.086, 327.325, -14.9811],\n    /59 : [314.72, 325.966, -12.9876],\n    /83 : [321.894, 377.188, -11.8487],\n    /142 : [307.281, 314.031, -2.27901],\n    /201 : [319.358, 387.014, -11.732],\n    /262 : [353.806, 394.57, -8.30639],\n    /321 : [349.115, 364.549, -12.9386],\n    /380 : [359.766, 288.226, 4.28535],\n    /428 : [342.271, 398.538, -13.5269],\n    /5 : [328.641, 305.062, -29.0975],\n    /32 : [306.348, 392.708, -5.53582],\n    /115 : [313.458, 318.394, -20.1952],\n    /174 : [320.004, 297.015, -11.5155],\n    /233 : [315.764, 290.213, 5.31668],\n    /235 : [312.337, 326.386, -12.9528],\n    /294 : [349.491, 326.624, -14.1304],\n    /353 : [390.095, 281.151, 12.2997],\n    /401 : [402.299, 343.576, 33.9559],\n    /460 : [345.234, 329.841, -13.135],\n    /64 : [310.279, 325.616, -11.7286],\n    /88 : [314.554, 357.835, -8.82039],\n    /147 : [269.916, 335.037, 24.7489],\n    /206 : [298.519, 337.236, -2.41124],\n    /267 : [336.657, 348.722, -18.8207],\n    /326 : [336.866, 332.233, -16.1319],\n    /385 : [360.677, 279.678, 3.68294],\n    /433 : [394.764, 351.316, 17.3952],\n    /37 : [321.883, 348.258, -17.7725],\n    /120 : [305.797, 300.545, 4.2507],\n    /179 : [317.819, 358.63, -12.8006],\n    /240 : [314.3, 328.967, -11.4615],\n    /299 : [363.66, 241.655, 1.42402],\n    /358 : [351.669, 324.168, -6.30759],\n    /406 : [345.88, 375.655, -12.1223],\n    /465 : [341.476, 287.058, -1.2229],\n    /69 : [299.987, 241.06, 5.51362],\n    /93 : [265.543, 327.446, 66.2692],\n    /152 : [329.758, 415.655, -5.46234],\n    /211 : [298.426, 385.984, 0.691647],\n    /272 : [346.201, 359.395, -11.6797],\n    /331 : [350.932, 323.008, -12.0813],\n    /390 : [374.238, 287.697, 7.04399],\n    /438 : [342.844, 321.966, -23.5031],\n    /42 : [314.09, 358.332, -9.23577],\n    /125 : [325.494, 326.142, -27.4881],\n    /184 : [308.792, 358.987, -5.8221],\n    /245 : [320.574, 286.717, 0.258941],\n    /304 : [348.009, 357.98, -12.8755],\n    /363 : [340.099, 309.705, -24.7027],\n    /411 : [386.922, 340.28, 5.1001],\n    /11 : [329.133, 353.267, -18.6669],\n    /98 : [312.641, 330.558, -8.33131],\n    /157 : [308.581, 280.092, 8.49278],\n    /216 : [293.829, 348.006, -0.470119],\n    /277 : [349.706, 302.325, -3.8206],\n    /336 : [345.496, 258.748, -6.89532],\n    /443 : [368.22, 271.163, 0.250205],\n    /47 : [312.241, 301.548, -1.20519],\n    /130 : [284.155, 284.521, 17.9124],\n    /189 : [318.311, 279.212, 5.65395],\n    /250 : [334.502, 326.966, -20.6747],\n    /309 : [340.827, 323.13, -22.4654],\n    /368 : [400.65, 279.31, 32.0441],\n    /416 : [388.356, 359.729, 11.6492],\n    /20 : [323.464, 326.669, -19.9983],\n    /103 : [282.591, 235.029, 23.6258],\n    /162 : [265.732, 275.527, 57.6291],\n    /221 : [313.586, 273.982, 4.65224],\n    /282 : [371.325, 264.179, -1.64831],\n    /341 : [349.828, 287.765, 5.41598],\n    /448 : [380.886, 297.83, 8.29963],\n    /52 : [292.16, 263.138, 3.34882],\n    /76 : [307.102, 360.398, -2.30179],\n    /135 : [280.903, 378.303, 19.6678],\n    /194 : [310.028, 383.656, -7.40516],\n    /255 : [379.167, 290.079, 8.96318],\n    /314 : [336.517, 367.967, -17.5541],\n    /373 : [370.523, 288.479, 5.36776],\n    /421 : [339.844, 387.821, -12.8827],\n    /25 : [285.872, 288.206, 15.3271],\n    /108 : [314.423, 239.984, 0.29377],\n    /167 : [321.047, 338.079, -15.6071],\n    /226 : [279.955, 286.606, 20.3568],\n    /287 : [363.337, 362.878, -4.68828],\n    /346 : [386.727, 305.388, 8.23015],\n    /394 : [374.78, 390.813, 6.9052],\n    /453 : [347.118, 290.784, 3.00955],\n    /57 : [298.383, 360.878, -0.233639],\n    /81 : [319.58, 357.602, -10.9693],\n    /140 : [304.644, 401.887, -2.74103],\n    /199 : [329.296, 398.868, -14.5245],\n    /260 : [377.044, 279.175, 5.05966],\n    /319 : [346.585, 359.666, -12.3991],\n    /378 : [364.774, 406.811, 6.96776],\n    /426 : [362.945, 338.99, -6.42804],\n    /3 : [323.977, 299.021, -20.6789],\n    /30 : [287.614, 277.689, 11.1593],\n    /113 : [280.943, 279.864, 16.6573],\n    /172 : [275.616, 378.208, 41.9187],\n    /231 : [305.587, 295.535, 6.2865],\n    /292 : [353.044, 361.323, -6.52181],\n    /351 : [336.24, 286.128, -9.92719],\n    /399 : [340.139, 297.431, -12.9127],\n    /458 : [334.715, 325.433, -25.6267],\n    /62 : [308.412, 359.927, -3.13136],\n    /86 : [323.181, 359.043, -14.9677],\n    /145 : [298.785, 287.63, 8.86391],\n    /204 : [302.584, 378.613, -3.37358],\n    /265 : [391.945, 291.093, 17.1331],\n    /324 : [349.007, 359.894, -8.70266],\n    /383 : [395.009, 280.286, 18.1626],\n    /431 : [362.978, 388.427, -3.02338],\n    /8 : [330.575, 269.323, -6.44158],\n    /35 : [274.62, 288.93, 24.8581],\n    /118 : [285.737, 305.262, 9.23539],\n    /177 : [266.157, 340.326, 42.8653],\n    /238 : [322.885, 325.128, -24.9886],\n    /297 : [368.412, 227.803, 8.19221],\n    /356 : [407.037, 296.23, 55.7186],\n    /404 : [342.532, 362.325, -16.0117],\n    /463 : [347.509, 285.322, 6.41918],\n    /67 : [296.784, 227.211, 12.9491],\n    /91 : [311.119, 363.308, -10.2975],\n    /150 : [290.13, 397.723, 19.1363],\n    /209 : [312.305, 313.288, -8.10672],\n    /270 : [350.012, 356.307, -12.9994],\n    /329 : [356.397, 307.315, -2.63191],\n    /388 : [374.901, 282.766, 6.28047],\n    /436 : [368.124, 350.103, -5.20658],\n    /40 : [310.157, 354.974, -10.0928],\n    /123 : [268.979, 319.835, 24.6531],\n    /182 : [314.107, 374.457, -9.90504],\n    /243 : [315.72, 284.77, 8.79386],\n    /302 : [336.226, 353.321, -18.3824],\n    /361 : [403.817, 348.635, 52.4908],\n    /409 : [354.02, 359.484, -9.11731],\n    /72 : [322.437, 352.831, -17.3687],\n    /96 : [310.818, 359.06, -6.58502],\n    /155 : [311.973, 285.241, 9.92229],\n    /214 : [283.827, 364.101, 9.26555],\n    /275 : [334.343, 314.884, -31.7291],\n    /334 : [373.783, 258.039, 0.0162912],\n    /393 : [337.656, 338.578, -16.6825],\n    /441 : [349.299, 274.559, 2.06568],\n    /45 : [322.389, 314.595, -31.0783],\n    /128 : [317.001, 292.515, 1.733],\n    /187 : [277.408, 337.505, 12.0402],\n    /248 : [334.577, 299.294, -21.4823],\n    /307 : [351.471, 361.478, -9.68661],\n    /366 : [404.261, 326.784, 36.2841],\n    /414 : [348.66, 281.169, 5.54247],\n    /18 : [329.554, 377.688, -12.4747],\n    /101 : [296.018, 311.331, 2.70844],\n    /160 : [293.051, 279.476, 10.043],\n    /219 : [311.863, 324.053, -15.6393],\n    /280 : [381.624, 322.834, 1.0256],\n    /339 : [376.249, 292.2, 6.66608],\n    /446 : [385.834, 288.604, 13.313],\n    /50 : [282.071, 320.533, 7.47904],\n    /74 : [312.148, 356.779, -10.2271],\n    /133 : [313.595, 284.434, 10.0013],\n    /192 : [276.62, 356.578, 18.6745],\n    /253 : [364.964, 293.107, 3.19146],\n    /312 : [335.098, 357.914, -14.2063],\n    /371 : [354.317, 315.15, -5.36491],\n    /419 : [335.497, 292.932, -16.1718]\n  }\n}"
								}

							}
, 							{
								"box" : 								{
									"comment" : "",
									"id" : "obj-30",
									"index" : 1,
									"maxclass" : "inlet",
									"numinlets" : 0,
									"numoutlets" : 1,
									"outlettype" : [ "FullPacket" ],
									"patching_rect" : [ 50.0, 18.0, 30.0, 30.0 ]
								}

							}
 ],
						"lines" : [ 							{
								"patchline" : 								{
									"destination" : [ "obj-4", 0 ],
									"source" : [ "obj-30", 0 ]
								}

							}
, 							{
								"patchline" : 								{
									"destination" : [ "obj-2", 0 ],
									"midpoints" : [ 59.5, 83.5, 101.5, 83.5 ],
									"order" : 0,
									"source" : [ "obj-4", 0 ]
								}

							}
, 							{
								"patchline" : 								{
									"destination" : [ "obj-3", 0 ],
									"order" : 1,
									"source" : [ "obj-4", 0 ]
								}

							}
 ]
					}
,
					"patching_rect" : [ 12.5, 499.0, 123.0, 22.0 ],
					"saved_object_attributes" : 					{
						"description" : "",
						"digest" : "",
						"globalpatchername" : "",
						"tags" : ""
					}
,
					"text" : "p handle_coordinates"
				}

			}
, 			{
				"box" : 				{
					"id" : "obj-21",
					"maxclass" : "newobj",
					"numinlets" : 2,
					"numoutlets" : 1,
					"outlettype" : [ "bang" ],
					"patching_rect" : [ 13.5, 13.0, 113.0, 22.0 ],
					"text" : "metro 50 @active 1"
				}

			}
, 			{
				"box" : 				{
					"fontname" : "Arial",
					"fontsize" : 13.0,
					"format" : 6,
					"id" : "obj-54",
					"maxclass" : "flonum",
					"numinlets" : 1,
					"numoutlets" : 2,
					"outlettype" : [ "", "bang" ],
					"parameter_enable" : 0,
					"patching_rect" : [ 13.5, 62.0, 57.0, 23.0 ],
					"triangle" : 0,
					"triscale" : 0.9
				}

			}
, 			{
				"box" : 				{
					"fontname" : "Arial",
					"fontsize" : 13.0,
					"id" : "obj-56",
					"maxclass" : "newobj",
					"numinlets" : 2,
					"numoutlets" : 2,
					"outlettype" : [ "", "int" ],
					"patching_rect" : [ 13.5, 37.0, 84.0, 23.0 ],
					"text" : "adstatus cpu"
				}

			}
, 			{
				"box" : 				{
					"id" : "obj-25",
					"maxclass" : "newobj",
					"numinlets" : 1,
					"numoutlets" : 1,
					"outlettype" : [ "" ],
					"patcher" : 					{
						"fileversion" : 1,
						"appversion" : 						{
							"major" : 8,
							"minor" : 5,
							"revision" : 3,
							"architecture" : "x64",
							"modernui" : 1
						}
,
						"classnamespace" : "box",
						"rect" : [ 34.0, 90.0, 1372.0, 776.0 ],
						"bglocked" : 0,
						"openinpresentation" : 0,
						"default_fontsize" : 12.0,
						"default_fontface" : 0,
						"default_fontname" : "Arial",
						"gridonopen" : 1,
						"gridsize" : [ 15.0, 15.0 ],
						"gridsnaponopen" : 1,
						"objectsnaponopen" : 1,
						"statusbarvisible" : 2,
						"toolbarvisible" : 1,
						"lefttoolbarpinned" : 0,
						"toptoolbarpinned" : 0,
						"righttoolbarpinned" : 0,
						"bottomtoolbarpinned" : 0,
						"toolbars_unpinned_last_save" : 0,
						"tallnewobj" : 0,
						"boxanimatetime" : 200,
						"enablehscroll" : 1,
						"enablevscroll" : 1,
						"devicewidth" : 0.0,
						"description" : "",
						"digest" : "",
						"tags" : "",
						"style" : "",
						"subpatcher_template" : "",
						"assistshowspatchername" : 0,
						"boxes" : [ 							{
								"box" : 								{
									"id" : "obj-3",
									"maxclass" : "newobj",
									"numinlets" : 1,
									"numoutlets" : 2,
									"outlettype" : [ "", "FullPacket" ],
									"patching_rect" : [ 50.000040666666791, 219.5, 62.0, 22.0 ],
									"text" : "o.route /id"
								}

							}
, 							{
								"box" : 								{
									"comment" : "",
									"id" : "obj-2",
									"index" : 1,
									"maxclass" : "outlet",
									"numinlets" : 1,
									"numoutlets" : 0,
									"patching_rect" : [ 50.000040666666791, 251.0, 30.0, 30.0 ]
								}

							}
, 							{
								"box" : 								{
									"id" : "obj-1",
									"maxclass" : "newobj",
									"numinlets" : 1,
									"numoutlets" : 2,
									"outlettype" : [ "", "FullPacket" ],
									"patching_rect" : [ 50.000040666666791, 72.0, 76.0, 22.0 ],
									"text" : "o.route /data"
								}

							}
, 							{
								"box" : 								{
									"fontface" : 0,
									"id" : "obj-37",
									"linecount" : 3,
									"maxclass" : "o.display",
									"numinlets" : 1,
									"numoutlets" : 1,
									"outlettype" : [ "" ],
									"patching_rect" : [ 114.000040666666791, 115.0, 286.0, 59.0 ],
									"text" : "/id : \"43826afd-4dc2-4d44-9916-9227f5bf7dd7\",\n/type : \"clientDisconnected\""
								}

							}
, 							{
								"box" : 								{
									"comment" : "",
									"id" : "obj-17",
									"index" : 1,
									"maxclass" : "inlet",
									"numinlets" : 0,
									"numoutlets" : 1,
									"outlettype" : [ "FullPacket" ],
									"patching_rect" : [ 50.000040666666791, 40.0, 30.0, 30.0 ]
								}

							}
 ],
						"lines" : [ 							{
								"patchline" : 								{
									"destination" : [ "obj-3", 0 ],
									"order" : 1,
									"source" : [ "obj-1", 0 ]
								}

							}
, 							{
								"patchline" : 								{
									"destination" : [ "obj-37", 0 ],
									"midpoints" : [ 59.500040666666791, 104.0, 123.500040666666791, 104.0 ],
									"order" : 0,
									"source" : [ "obj-1", 0 ]
								}

							}
, 							{
								"patchline" : 								{
									"destination" : [ "obj-1", 0 ],
									"source" : [ "obj-17", 0 ]
								}

							}
, 							{
								"patchline" : 								{
									"destination" : [ "obj-2", 0 ],
									"source" : [ "obj-3", 0 ]
								}

							}
 ]
					}
,
					"patching_rect" : [ 584.0, 519.5, 162.0, 22.0 ],
					"saved_object_attributes" : 					{
						"description" : "",
						"digest" : "",
						"globalpatchername" : "",
						"tags" : ""
					}
,
					"text" : "p handle_clientDisconnected"
				}

			}
, 			{
				"box" : 				{
					"fontface" : 0,
					"id" : "obj-38",
					"linecount" : 6,
					"maxclass" : "o.display",
					"numinlets" : 1,
					"numoutlets" : 1,
					"outlettype" : [ "" ],
					"patching_rect" : [ 749.5, 519.5, 278.0, 97.0 ],
					"text" : "/type : \"wsId\",\n/data : {\n  /id : \"274153c7-f270-4199-887f-c1e0b74bdb0e\",\n  /type : \"id\"\n}"
				}

			}
, 			{
				"box" : 				{
					"id" : "obj-36",
					"maxclass" : "newobj",
					"numinlets" : 1,
					"numoutlets" : 1,
					"outlettype" : [ "" ],
					"patcher" : 					{
						"fileversion" : 1,
						"appversion" : 						{
							"major" : 8,
							"minor" : 5,
							"revision" : 3,
							"architecture" : "x64",
							"modernui" : 1
						}
,
						"classnamespace" : "box",
						"rect" : [ 34.0, 90.0, 1372.0, 776.0 ],
						"bglocked" : 0,
						"openinpresentation" : 0,
						"default_fontsize" : 12.0,
						"default_fontface" : 0,
						"default_fontname" : "Arial",
						"gridonopen" : 1,
						"gridsize" : [ 15.0, 15.0 ],
						"gridsnaponopen" : 1,
						"objectsnaponopen" : 1,
						"statusbarvisible" : 2,
						"toolbarvisible" : 1,
						"lefttoolbarpinned" : 0,
						"toptoolbarpinned" : 0,
						"righttoolbarpinned" : 0,
						"bottomtoolbarpinned" : 0,
						"toolbars_unpinned_last_save" : 0,
						"tallnewobj" : 0,
						"boxanimatetime" : 200,
						"enablehscroll" : 1,
						"enablevscroll" : 1,
						"devicewidth" : 0.0,
						"description" : "",
						"digest" : "",
						"tags" : "",
						"style" : "",
						"subpatcher_template" : "",
						"assistshowspatchername" : 0,
						"boxes" : [ 							{
								"box" : 								{
									"comment" : "",
									"id" : "obj-3",
									"index" : 1,
									"maxclass" : "outlet",
									"numinlets" : 1,
									"numoutlets" : 0,
									"patching_rect" : [ 50.0, 239.0, 30.0, 30.0 ]
								}

							}
, 							{
								"box" : 								{
									"id" : "obj-2",
									"maxclass" : "newobj",
									"numinlets" : 1,
									"numoutlets" : 2,
									"outlettype" : [ "", "FullPacket" ],
									"patching_rect" : [ 50.0, 74.0, 76.0, 22.0 ],
									"text" : "o.route /data"
								}

							}
, 							{
								"box" : 								{
									"id" : "obj-1",
									"maxclass" : "newobj",
									"numinlets" : 1,
									"numoutlets" : 2,
									"outlettype" : [ "", "FullPacket" ],
									"patching_rect" : [ 50.0, 209.5, 62.0, 22.0 ],
									"text" : "o.route /id"
								}

							}
, 							{
								"box" : 								{
									"fontface" : 0,
									"id" : "obj-25",
									"linecount" : 2,
									"maxclass" : "o.display",
									"numinlets" : 1,
									"numoutlets" : 1,
									"outlettype" : [ "" ],
									"patching_rect" : [ 114.0, 111.0, 395.0, 46.0 ],
									"text" : "/id : \"5f43a54b-d29c-4d4d-ae35-2a5bcb9bbb91\",\n/type : \"clientConnected\""
								}

							}
, 							{
								"box" : 								{
									"comment" : "",
									"id" : "obj-35",
									"index" : 1,
									"maxclass" : "inlet",
									"numinlets" : 0,
									"numoutlets" : 1,
									"outlettype" : [ "FullPacket" ],
									"patching_rect" : [ 50.0, 40.0, 30.0, 30.0 ]
								}

							}
 ],
						"lines" : [ 							{
								"patchline" : 								{
									"destination" : [ "obj-3", 0 ],
									"source" : [ "obj-1", 0 ]
								}

							}
, 							{
								"patchline" : 								{
									"destination" : [ "obj-1", 0 ],
									"order" : 1,
									"source" : [ "obj-2", 0 ]
								}

							}
, 							{
								"patchline" : 								{
									"destination" : [ "obj-25", 0 ],
									"midpoints" : [ 59.5, 98.0, 123.5, 98.0 ],
									"order" : 0,
									"source" : [ "obj-2", 0 ]
								}

							}
, 							{
								"patchline" : 								{
									"destination" : [ "obj-2", 0 ],
									"source" : [ "obj-35", 0 ]
								}

							}
 ]
					}
,
					"patching_rect" : [ 393.5, 523.0, 147.0, 22.0 ],
					"saved_object_attributes" : 					{
						"description" : "",
						"digest" : "",
						"globalpatchername" : "",
						"tags" : ""
					}
,
					"text" : "p handle_clientConnected"
				}

			}
, 			{
				"box" : 				{
					"fontname" : "Arial",
					"fontsize" : 12.0,
					"id" : "obj-6",
					"maxclass" : "newobj",
					"numinlets" : 1,
					"numoutlets" : 4,
					"outlettype" : [ "FullPacket", "FullPacket", "FullPacket", "FullPacket" ],
					"patching_rect" : [ 12.5, 475.0, 595.0, 22.0 ],
					"text" : "o.cond /type == coordinates\\, /type == clientConnected\\, /type == clientDisconnected"
				}

			}
, 			{
				"box" : 				{
					"id" : "obj-4",
					"maxclass" : "newobj",
					"numinlets" : 2,
					"numoutlets" : 1,
					"outlettype" : [ "bang" ],
					"patching_rect" : [ 1218.5, 368.5, 55.0, 22.0 ],
					"text" : "del 5000"
				}

			}
, 			{
				"box" : 				{
					"id" : "obj-27",
					"maxclass" : "message",
					"numinlets" : 2,
					"numoutlets" : 1,
					"outlettype" : [ "" ],
					"patching_rect" : [ 935.5, 150.5, 117.0, 22.0 ],
					"text" : "script npm install"
				}

			}
, 			{
				"box" : 				{
					"bgcolor" : [ 0.662745098039216, 0.8, 0.815686274509804, 1.0 ],
					"fontname" : "Apple Chancery",
					"fontsize" : 50.0,
					"id" : "obj-26",
					"maxclass" : "textbutton",
					"numinlets" : 1,
					"numoutlets" : 3,
					"outlettype" : [ "", "", "int" ],
					"parameter_enable" : 0,
					"patching_rect" : [ 414.5, 65.5, 201.0, 71.0 ],
					"text" : "START",
					"textoncolor" : [ 1.0, 1.0, 1.0, 1.0 ]
				}

			}
, 			{
				"box" : 				{
					"id" : "obj-2",
					"maxclass" : "newobj",
					"numinlets" : 0,
					"numoutlets" : 1,
					"outlettype" : [ "" ],
					"patching_rect" : [ 12.5, 120.5, 67.0, 22.0 ],
					"text" : "r ws_ready"
				}

			}
, 			{
				"box" : 				{
					"id" : "obj-28",
					"maxclass" : "newobj",
					"numinlets" : 0,
					"numoutlets" : 1,
					"outlettype" : [ "" ],
					"patching_rect" : [ 1218.5, 344.5, 67.0, 22.0 ],
					"text" : "r ws_ready"
				}

			}
, 			{
				"box" : 				{
					"id" : "obj-23",
					"maxclass" : "newobj",
					"numinlets" : 0,
					"numoutlets" : 1,
					"outlettype" : [ "" ],
					"patching_rect" : [ 816.5, 126.5, 67.0, 22.0 ],
					"text" : "r ws_ready"
				}

			}
, 			{
				"box" : 				{
					"id" : "obj-22",
					"maxclass" : "newobj",
					"numinlets" : 1,
					"numoutlets" : 0,
					"patching_rect" : [ 414.5, 445.0, 69.0, 22.0 ],
					"text" : "s ws_ready"
				}

			}
, 			{
				"box" : 				{
					"id" : "obj-5",
					"maxclass" : "newobj",
					"numinlets" : 2,
					"numoutlets" : 2,
					"outlettype" : [ "", "" ],
					"patching_rect" : [ 414.5, 421.0, 91.0, 22.0 ],
					"text" : "route ws_ready"
				}

			}
, 			{
				"box" : 				{
					"id" : "obj-20",
					"maxclass" : "message",
					"numinlets" : 2,
					"numoutlets" : 1,
					"outlettype" : [ "" ],
					"patching_rect" : [ 1218.5, 392.5, 248.0, 22.0 ],
					"text" : "url http://127.0.0.1:8080/client/facemesh.html"
				}

			}
, 			{
				"box" : 				{
					"bgmode" : 0,
					"border" : 0,
					"clickthrough" : 0,
					"enablehscroll" : 0,
					"enablevscroll" : 0,
					"id" : "obj-16",
					"lockeddragscroll" : 0,
					"lockedsize" : 0,
					"maxclass" : "bpatcher",
					"name" : "n4m.monitor.maxpat",
					"numinlets" : 1,
					"numoutlets" : 1,
					"offset" : [ 0.0, 0.0 ],
					"outlettype" : [ "bang" ],
					"patching_rect" : [ 816.5, 198.5, 400.0, 220.0 ],
					"viewvisibility" : 1
				}

			}
, 			{
				"box" : 				{
					"id" : "obj-15",
					"maxclass" : "newobj",
					"numinlets" : 1,
					"numoutlets" : 2,
					"outlettype" : [ "", "" ],
					"patching_rect" : [ 816.5, 174.5, 137.0, 22.0 ],
					"saved_object_attributes" : 					{
						"autostart" : 0,
						"defer" : 0,
						"watch" : 0
					}
,
					"text" : "node.script ws_server.js"
				}

			}
, 			{
				"box" : 				{
					"id" : "obj-14",
					"maxclass" : "message",
					"numinlets" : 2,
					"numoutlets" : 1,
					"outlettype" : [ "" ],
					"patching_rect" : [ 816.5, 150.5, 117.0, 22.0 ],
					"text" : "script npm run serve"
				}

			}
, 			{
				"box" : 				{
					"id" : "obj-7",
					"maxclass" : "message",
					"numinlets" : 2,
					"numoutlets" : 1,
					"outlettype" : [ "" ],
					"patching_rect" : [ 484.0, 144.5, 63.0, 22.0 ],
					"text" : "script stop"
				}

			}
, 			{
				"box" : 				{
					"id" : "obj-8",
					"maxclass" : "message",
					"numinlets" : 2,
					"numoutlets" : 1,
					"outlettype" : [ "" ],
					"patching_rect" : [ 414.5, 144.5, 66.0, 22.0 ],
					"text" : "script start"
				}

			}
, 			{
				"box" : 				{
					"bgmode" : 0,
					"border" : 0,
					"clickthrough" : 0,
					"enablehscroll" : 0,
					"enablevscroll" : 0,
					"id" : "obj-10",
					"lockeddragscroll" : 0,
					"lockedsize" : 0,
					"maxclass" : "bpatcher",
					"name" : "n4m.monitor.maxpat",
					"numinlets" : 1,
					"numoutlets" : 1,
					"offset" : [ 0.0, 0.0 ],
					"outlettype" : [ "bang" ],
					"patching_rect" : [ 414.5, 198.5, 400.0, 220.0 ],
					"viewvisibility" : 1
				}

			}
, 			{
				"box" : 				{
					"id" : "obj-11",
					"maxclass" : "newobj",
					"numinlets" : 1,
					"numoutlets" : 2,
					"outlettype" : [ "", "" ],
					"patching_rect" : [ 414.5, 174.5, 193.0, 22.0 ],
					"saved_object_attributes" : 					{
						"autostart" : 0,
						"defer" : 0,
						"node_bin_path" : "",
						"npm_bin_path" : "",
						"watch" : 1
					}
,
					"text" : "node.script ws_server.js @watch 1"
				}

			}
, 			{
				"box" : 				{
					"fontsize" : 12.0,
					"id" : "obj-31",
					"maxclass" : "message",
					"numinlets" : 2,
					"numoutlets" : 1,
					"outlettype" : [ "" ],
					"patching_rect" : [ 1617.5, 403.5, 42.0, 22.0 ],
					"text" : "reload"
				}

			}
, 			{
				"box" : 				{
					"id" : "obj-57",
					"maxclass" : "jweb",
					"numinlets" : 1,
					"numoutlets" : 1,
					"outlettype" : [ "" ],
					"patching_rect" : [ 1029.5, 427.5, 707.494331065759752, 526.0 ],
					"presentation" : 1,
					"presentation_rect" : [ 40.0, 35.0, 385.0, 258.0 ],
					"rendermode" : 2,
					"url" : "http://127.0.0.1:8080/client/facemesh.html"
				}

			}
, 			{
				"box" : 				{
					"id" : "obj-12",
					"maxclass" : "message",
					"numinlets" : 2,
					"numoutlets" : 1,
					"outlettype" : [ "" ],
					"patching_rect" : [ 82.0, 144.5, 63.0, 22.0 ],
					"text" : "script stop"
				}

			}
, 			{
				"box" : 				{
					"id" : "obj-13",
					"maxclass" : "message",
					"numinlets" : 2,
					"numoutlets" : 1,
					"outlettype" : [ "" ],
					"patching_rect" : [ 12.5, 144.5, 66.0, 22.0 ],
					"text" : "script start"
				}

			}
, 			{
				"box" : 				{
					"bgmode" : 0,
					"border" : 0,
					"clickthrough" : 0,
					"enablehscroll" : 0,
					"enablevscroll" : 0,
					"id" : "obj-3",
					"lockeddragscroll" : 0,
					"lockedsize" : 0,
					"maxclass" : "bpatcher",
					"name" : "n4m.monitor.maxpat",
					"numinlets" : 1,
					"numoutlets" : 1,
					"offset" : [ 0.0, 0.0 ],
					"outlettype" : [ "bang" ],
					"patching_rect" : [ 12.5, 198.5, 400.0, 220.0 ],
					"viewvisibility" : 1
				}

			}
, 			{
				"box" : 				{
					"id" : "obj-1",
					"maxclass" : "newobj",
					"numinlets" : 1,
					"numoutlets" : 2,
					"outlettype" : [ "", "" ],
					"patching_rect" : [ 12.5, 174.5, 197.0, 22.0 ],
					"saved_object_attributes" : 					{
						"autostart" : 0,
						"defer" : 0,
						"watch" : 1
					}
,
					"text" : "node.script max_client.js @watch 1"
				}

			}
 ],
		"lines" : [ 			{
				"patchline" : 				{
					"destination" : [ "obj-3", 0 ],
					"midpoints" : [ 200.0, 199.0, 22.0, 199.0 ],
					"source" : [ "obj-1", 1 ]
				}

			}
, 			{
				"patchline" : 				{
					"destination" : [ "obj-6", 0 ],
					"midpoints" : [ 22.0, 308.25, 22.0, 308.25 ],
					"source" : [ "obj-1", 0 ]
				}

			}
, 			{
				"patchline" : 				{
					"destination" : [ "obj-10", 0 ],
					"midpoints" : [ 598.0, 199.0, 424.0, 199.0 ],
					"source" : [ "obj-11", 1 ]
				}

			}
, 			{
				"patchline" : 				{
					"destination" : [ "obj-5", 0 ],
					"source" : [ "obj-11", 0 ]
				}

			}
, 			{
				"patchline" : 				{
					"destination" : [ "obj-1", 0 ],
					"source" : [ "obj-12", 0 ]
				}

			}
, 			{
				"patchline" : 				{
					"destination" : [ "obj-1", 0 ],
					"source" : [ "obj-13", 0 ]
				}

			}
, 			{
				"patchline" : 				{
					"destination" : [ "obj-15", 0 ],
					"source" : [ "obj-14", 0 ]
				}

			}
, 			{
				"patchline" : 				{
					"destination" : [ "obj-16", 0 ],
					"source" : [ "obj-15", 1 ]
				}

			}
, 			{
				"patchline" : 				{
					"destination" : [ "obj-18", 1 ],
					"order" : 0,
					"source" : [ "obj-17", 0 ]
				}

			}
, 			{
				"patchline" : 				{
					"destination" : [ "obj-18", 0 ],
					"order" : 1,
					"source" : [ "obj-17", 0 ]
				}

			}
, 			{
				"patchline" : 				{
					"destination" : [ "obj-13", 0 ],
					"source" : [ "obj-2", 0 ]
				}

			}
, 			{
				"patchline" : 				{
					"destination" : [ "obj-57", 0 ],
					"midpoints" : [ 1228.0, 420.5, 1039.0, 420.5 ],
					"source" : [ "obj-20", 0 ]
				}

			}
, 			{
				"patchline" : 				{
					"destination" : [ "obj-56", 0 ],
					"source" : [ "obj-21", 0 ]
				}

			}
, 			{
				"patchline" : 				{
					"destination" : [ "obj-14", 0 ],
					"source" : [ "obj-23", 0 ]
				}

			}
, 			{
				"patchline" : 				{
					"destination" : [ "obj-18", 0 ],
					"source" : [ "obj-24", 0 ]
				}

			}
, 			{
				"patchline" : 				{
					"destination" : [ "obj-42", 2 ],
					"midpoints" : [ 593.5, 620.5, 593.0, 620.5 ],
					"source" : [ "obj-25", 0 ]
				}

			}
, 			{
				"patchline" : 				{
					"destination" : [ "obj-8", 0 ],
					"source" : [ "obj-26", 0 ]
				}

			}
, 			{
				"patchline" : 				{
					"destination" : [ "obj-15", 0 ],
					"source" : [ "obj-27", 0 ]
				}

			}
, 			{
				"patchline" : 				{
					"destination" : [ "obj-4", 0 ],
					"source" : [ "obj-28", 0 ]
				}

			}
, 			{
				"patchline" : 				{
					"destination" : [ "obj-34", 0 ],
					"source" : [ "obj-30", 0 ]
				}

			}
, 			{
				"patchline" : 				{
					"destination" : [ "obj-57", 0 ],
					"midpoints" : [ 1627.0, 426.0, 1039.0, 426.0 ],
					"source" : [ "obj-31", 0 ]
				}

			}
, 			{
				"patchline" : 				{
					"destination" : [ "obj-42", 1 ],
					"midpoints" : [ 22.0, 688.0, 498.0, 688.0 ],
					"source" : [ "obj-34", 0 ]
				}

			}
, 			{
				"patchline" : 				{
					"destination" : [ "obj-43", 0 ],
					"midpoints" : [ 403.0, 565.5, 403.0, 565.5 ],
					"source" : [ "obj-36", 0 ]
				}

			}
, 			{
				"patchline" : 				{
					"destination" : [ "obj-20", 0 ],
					"source" : [ "obj-4", 0 ]
				}

			}
, 			{
				"patchline" : 				{
					"destination" : [ "obj-17", 0 ],
					"source" : [ "obj-42", 0 ]
				}

			}
, 			{
				"patchline" : 				{
					"destination" : [ "obj-42", 0 ],
					"source" : [ "obj-43", 0 ]
				}

			}
, 			{
				"patchline" : 				{
					"destination" : [ "obj-51", 0 ],
					"source" : [ "obj-45", 0 ]
				}

			}
, 			{
				"patchline" : 				{
					"destination" : [ "obj-42", 0 ],
					"midpoints" : [ 475.0, 688.5, 403.0, 688.5 ],
					"source" : [ "obj-49", 0 ]
				}

			}
, 			{
				"patchline" : 				{
					"destination" : [ "obj-22", 0 ],
					"source" : [ "obj-5", 0 ]
				}

			}
, 			{
				"patchline" : 				{
					"destination" : [ "obj-49", 1 ],
					"midpoints" : [ 475.0, 639.5, 506.0, 639.5 ],
					"source" : [ "obj-51", 0 ]
				}

			}
, 			{
				"patchline" : 				{
					"destination" : [ "obj-54", 0 ],
					"source" : [ "obj-56", 0 ]
				}

			}
, 			{
				"patchline" : 				{
					"destination" : [ "obj-25", 0 ],
					"midpoints" : [ 406.0, 507.75, 593.5, 507.75 ],
					"source" : [ "obj-6", 2 ]
				}

			}
, 			{
				"patchline" : 				{
					"destination" : [ "obj-30", 0 ],
					"source" : [ "obj-6", 0 ]
				}

			}
, 			{
				"patchline" : 				{
					"destination" : [ "obj-36", 0 ],
					"midpoints" : [ 214.0, 509.5, 403.0, 509.5 ],
					"source" : [ "obj-6", 1 ]
				}

			}
, 			{
				"patchline" : 				{
					"destination" : [ "obj-38", 0 ],
					"midpoints" : [ 598.0, 500.75, 759.0, 500.75 ],
					"source" : [ "obj-6", 3 ]
				}

			}
, 			{
				"patchline" : 				{
					"destination" : [ "obj-11", 0 ],
					"source" : [ "obj-7", 0 ]
				}

			}
, 			{
				"patchline" : 				{
					"destination" : [ "obj-11", 0 ],
					"source" : [ "obj-8", 0 ]
				}

			}
 ],
		"dependency_cache" : [ 			{
				"name" : "cnmat.loadbang.maxpat",
				"bootpath" : "~/Documents/Max 8/Packages/Music-and-Computing-1.7/patchers/internal",
				"patcherrelativepath" : "../../Documents/Max 8/Packages/Music-and-Computing-1.7/patchers/internal",
				"type" : "JSON",
				"implicit" : 1
			}
, 			{
				"name" : "fit_jweb_to_bounds.js",
				"bootpath" : "C74:/packages/Node for Max/patchers/debug-monitor",
				"type" : "TEXT",
				"implicit" : 1
			}
, 			{
				"name" : "granu_synth.maxpat",
				"bootpath" : "~/workspace/ws-faces",
				"patcherrelativepath" : ".",
				"type" : "JSON",
				"implicit" : 1
			}
, 			{
				"name" : "granubuf.pan.gendsp",
				"bootpath" : "~/Documents/Max 8/Packages/Music-and-Computing-1.7/code",
				"patcherrelativepath" : "../../Documents/Max 8/Packages/Music-and-Computing-1.7/code",
				"type" : "gDSP",
				"implicit" : 1
			}
, 			{
				"name" : "lip_synth.maxpat",
				"bootpath" : "~/workspace/ws-faces",
				"patcherrelativepath" : ".",
				"type" : "JSON",
				"implicit" : 1
			}
, 			{
				"name" : "max_client.js",
				"bootpath" : "~/workspace/ws-faces",
				"patcherrelativepath" : ".",
				"type" : "TEXT",
				"implicit" : 1
			}
, 			{
				"name" : "n4m.monitor.maxpat",
				"bootpath" : "C74:/packages/Node for Max/patchers/debug-monitor",
				"type" : "JSON",
				"implicit" : 1
			}
, 			{
				"name" : "o.change.mxo",
				"type" : "iLaX"
			}
, 			{
				"name" : "o.collect.mxo",
				"type" : "iLaX"
			}
, 			{
				"name" : "o.compose.mxo",
				"type" : "iLaX"
			}
, 			{
				"name" : "o.cond.mxo",
				"type" : "iLaX"
			}
, 			{
				"name" : "o.display.mxo",
				"type" : "iLaX"
			}
, 			{
				"name" : "o.doc.handler.maxpat",
				"bootpath" : "~/Documents/Max 8/Packages/Music-and-Computing-1.7/patchers/internal",
				"patcherrelativepath" : "../../Documents/Max 8/Packages/Music-and-Computing-1.7/patchers/internal",
				"type" : "JSON",
				"implicit" : 1
			}
, 			{
				"name" : "o.expr.codebox.mxo",
				"type" : "iLaX"
			}
, 			{
				"name" : "o.granubuf~.maxpat",
				"bootpath" : "~/Documents/Max 8/Packages/Music-and-Computing-1.7/patchers/sound-engines/samples",
				"patcherrelativepath" : "../../Documents/Max 8/Packages/Music-and-Computing-1.7/patchers/sound-engines/samples",
				"type" : "JSON",
				"implicit" : 1
			}
, 			{
				"name" : "o.pack.mxo",
				"type" : "iLaX"
			}
, 			{
				"name" : "o.prepend.mxo",
				"type" : "iLaX"
			}
, 			{
				"name" : "o.route.mxo",
				"type" : "iLaX"
			}
, 			{
				"name" : "o.select.mxo",
				"type" : "iLaX"
			}
, 			{
				"name" : "o.union.mxo",
				"type" : "iLaX"
			}
, 			{
				"name" : "o.var.mxo",
				"type" : "iLaX"
			}
, 			{
				"name" : "resize_n4m_monitor_patcher.js",
				"bootpath" : "C74:/packages/Node for Max/patchers/debug-monitor",
				"type" : "TEXT",
				"implicit" : 1
			}
, 			{
				"name" : "sine_synth.maxpat",
				"bootpath" : "~/workspace/ws-faces",
				"patcherrelativepath" : ".",
				"type" : "JSON",
				"implicit" : 1
			}
, 			{
				"name" : "ws_server.js",
				"bootpath" : "~/workspace/ws-faces",
				"patcherrelativepath" : ".",
				"type" : "TEXT",
				"implicit" : 1
			}
 ],
		"autosave" : 0
	}

}
