{
	"patcher" : 	{
		"fileversion" : 1,
		"appversion" : 		{
			"major" : 8,
			"minor" : 3,
			"revision" : 1,
			"architecture" : "x64",
			"modernui" : 1
		}
,
		"classnamespace" : "box",
		"rect" : [ 34.0, 118.0, 1028.0, 748.0 ],
		"bglocked" : 0,
		"openinpresentation" : 0,
		"default_fontsize" : 12.0,
		"default_fontface" : 0,
		"default_fontname" : "Arial",
		"gridonopen" : 1,
		"gridsize" : [ 15.0, 15.0 ],
		"gridsnaponopen" : 1,
		"objectsnaponopen" : 1,
		"statusbarvisible" : 2,
		"toolbarvisible" : 1,
		"lefttoolbarpinned" : 0,
		"toptoolbarpinned" : 0,
		"righttoolbarpinned" : 0,
		"bottomtoolbarpinned" : 0,
		"toolbars_unpinned_last_save" : 0,
		"tallnewobj" : 0,
		"boxanimatetime" : 200,
		"enablehscroll" : 1,
		"enablevscroll" : 1,
		"devicewidth" : 0.0,
		"description" : "",
		"digest" : "",
		"tags" : "",
		"style" : "",
		"subpatcher_template" : "",
		"assistshowspatchername" : 0,
		"boxes" : [ 			{
				"box" : 				{
					"id" : "obj-24",
					"maxclass" : "message",
					"numinlets" : 2,
					"numoutlets" : 1,
					"outlettype" : [ "" ],
					"patching_rect" : [ 438.0, 789.0, 72.0, 22.0 ],
					"text" : "startwindow"
				}

			}
, 			{
				"box" : 				{
					"id" : "obj-18",
					"maxclass" : "newobj",
					"numinlets" : 2,
					"numoutlets" : 0,
					"patching_rect" : [ 393.5, 819.0, 35.0, 22.0 ],
					"text" : "dac~"
				}

			}
, 			{
				"box" : 				{
					"id" : "obj-17",
					"maxclass" : "gain~",
					"multichannelvariant" : 0,
					"numinlets" : 1,
					"numoutlets" : 2,
					"outlettype" : [ "signal", "" ],
					"parameter_enable" : 0,
					"patching_rect" : [ 393.5, 762.0, 169.0, 21.0 ]
				}

			}
, 			{
				"box" : 				{
					"fontsize" : 12.0,
					"id" : "obj-9",
					"maxclass" : "message",
					"numinlets" : 2,
					"numoutlets" : 1,
					"outlettype" : [ "" ],
					"patching_rect" : [ 762.74716553287999, 174.5, 42.0, 22.0 ],
					"text" : "reload"
				}

			}
, 			{
				"box" : 				{
					"id" : "obj-51",
					"maxclass" : "newobj",
					"numinlets" : 1,
					"numoutlets" : 1,
					"outlettype" : [ "" ],
					"patching_rect" : [ 465.5, 617.0, 83.0, 22.0 ],
					"text" : "prepend open"
				}

			}
, 			{
				"box" : 				{
					"id" : "obj-49",
					"maxclass" : "message",
					"numinlets" : 2,
					"numoutlets" : 1,
					"outlettype" : [ "" ],
					"patching_rect" : [ 465.5, 641.0, 50.0, 22.0 ],
					"text" : "open 2"
				}

			}
, 			{
				"box" : 				{
					"id" : "obj-45",
					"maxclass" : "number",
					"numinlets" : 1,
					"numoutlets" : 2,
					"outlettype" : [ "", "bang" ],
					"parameter_enable" : 0,
					"patching_rect" : [ 465.5, 593.0, 50.0, 22.0 ]
				}

			}
, 			{
				"box" : 				{
					"fontname" : "Arial",
					"fontsize" : 13.0,
					"id" : "obj-43",
					"maxclass" : "message",
					"numinlets" : 2,
					"numoutlets" : 1,
					"outlettype" : [ "" ],
					"patching_rect" : [ 393.5, 641.0, 55.0, 23.0 ],
					"text" : "note $1"
				}

			}
, 			{
				"box" : 				{
					"id" : "obj-42",
					"maxclass" : "newobj",
					"numinlets" : 3,
					"numoutlets" : 1,
					"outlettype" : [ "signal" ],
					"patching_rect" : [ 393.5, 709.0, 209.0, 22.0 ],
					"text" : "poly~ lip_synth @voices 4 @target 0"
				}

			}
, 			{
				"box" : 				{
					"id" : "obj-35",
					"maxclass" : "jweb",
					"numinlets" : 1,
					"numoutlets" : 1,
					"outlettype" : [ "" ],
					"patching_rect" : [ 620.252834467120351, 198.5, 184.494331065759638, 127.333832335329305 ],
					"presentation" : 1,
					"presentation_rect" : [ 562.0, 197.5, 385.0, 258.0 ],
					"rendermode" : 2,
					"url" : "http://127.0.0.1:8080/client/lips.html"
				}

			}
, 			{
				"box" : 				{
					"fontface" : 0,
					"id" : "obj-34",
					"linecount" : 473,
					"maxclass" : "o.display",
					"numinlets" : 1,
					"numoutlets" : 1,
					"outlettype" : [ "" ],
					"patching_rect" : [ 12.5, 523.0, 366.0, 6077.0 ],
					"text" : "/eab9f5d5-48af-49b3-817b-891900fdab36 : {\n  /positions : {\n    /71 : [306.388, 141.136, 12.0987],\n    /173 : [365.172, 175.146, -1.286],\n    /232 : [364.797, 188.692, -2.42797],\n    /314 : [397.987, 290.37, -6.12841],\n    /373 : [441.691, 184.671, 5.38991],\n    /432 : [434.061, 275.705, 10.2397],\n    /44 : [387.71, 235.441, -29.5055],\n    /103 : [323.751, 108.011, 0.412596],\n    /146 : [362.405, 278.017, -2.75634],\n    /205 : [338.121, 233.994, -3.41072],\n    /264 : [474.235, 181.261, 41.3513],\n    /287 : [425.727, 276.855, 6.38318],\n    /346 : [458.813, 203.774, 13.0655],\n    /405 : [405.449, 287.408, -4.55632],\n    /76 : [362.279, 275.614, -0.965467],\n    /178 : [376.802, 274.995, -6.46363],\n    /237 : [381.849, 233.563, -27.2109],\n    /319 : [407.52, 277.697, -3.0011],\n    /378 : [422.034, 311.305, 27.2021],\n    /437 : [410.563, 207.289, -9.90913],\n    /49 : [367.086, 226.487, -15.1773],\n    /108 : [372.376, 122.927, -16.0959],\n    /151 : [396.218, 124.751, -15.9409],\n    /210 : [336.144, 286.664, 10.5523],\n    /269 : [407.8, 267.886, -9.24603],\n    /292 : [412.554, 277.254, 2.52307],\n    /351 : [401.6, 186.956, -14.1243],\n    /410 : [423.739, 268.592, 1.15793],\n    /81 : [378.42, 274.022, -7.47622],\n    /124 : [314.205, 163.053, 3.65256],\n    /183 : [367.467, 274.792, -4.29078],\n    /242 : [387.336, 240.034, -18.6766],\n    /324 : [408.776, 276.319, 0.285926],\n    /383 : [469.137, 167.779, 20.0213],\n    /442 : [431.039, 161.916, -3.83213],\n    /446 : [458.548, 180.504, 15.4075],\n    /11 : [391.053, 269.741, -13.7001],\n    /54 : [309.183, 118.797, 12.2204],\n    /113 : [321.155, 165.544, 1.43367],\n    /156 : [307.871, 159.776, 9.02694],\n    /215 : [302.784, 248.601, 34.4068],\n    /274 : [400.586, 235.902, -28.8123],\n    /297 : [443.458, 107.671, -2.78123],\n    /356 : [473.305, 177.721, 61.2199],\n    /415 : [408.27, 275.47, -0.0163953],\n    /27 : [344.864, 160.368, -6.94],\n    /86 : [382.255, 279.28, -8.06897],\n    /129 : [364.584, 230.228, -6.02481],\n    /188 : [379.513, 190.811, -11.8782],\n    /247 : [325.887, 167.054, 0.273207],\n    /329 : [423.205, 209.262, -0.960093],\n    /388 : [448.325, 175.471, 6.11866],\n    /451 : [424.705, 194.393, 2.07073],\n    /59 : [373.769, 236.418, -13.79],\n    /118 : [329.541, 202.767, -0.923825],\n    /161 : [332.978, 169.741, -1.57458],\n    /220 : [379.657, 227.398, -27.2891],\n    /279 : [416.599, 228.315, -11.9637],\n    /302 : [398.759, 269.648, -12.3907],\n    /361 : [463.194, 235.611, 67.2509],\n    /420 : [410.998, 215.905, -13.4108],\n    /4 : [394.958, 227.397, -32.0625],\n    /15 : [389.955, 280.674, -7.85615],\n    /32 : [356.82, 305.279, 5.48366],\n    /91 : [366.069, 281.406, -5.39211],\n    /134 : [379.611, 218.237, -25.832],\n    /193 : [382.567, 172.558, -10.5281],\n    /252 : [425.891, 188.896, 1.99724],\n    /334 : [450.839, 144.885, -4.3164],\n    /393 : [401.506, 251.825, -11.8416],\n    /456 : [406.773, 210.328, -18.5045],\n    /64 : [367.608, 235.207, -13.1521],\n    /166 : [373.644, 235.017, -16.0524],\n    /225 : [325.205, 159.238, -3.43371],\n    /307 : [412.234, 278.701, -0.019539],\n    /366 : [470.698, 218.082, 46.9563],\n    /425 : [440.041, 238.068, 2.94872],\n    /9 : [395.301, 147.88, -16.824],\n    /20 : [385.761, 238.604, -18.9346],\n    /37 : [382.485, 263.675, -14.4276],\n    /96 : [366.838, 275.4, -3.72433],\n    /139 : [300.699, 155.64, 21.8811],\n    /198 : [373.952, 214.391, -15.7991],\n    /257 : [438.947, 165.658, -0.509416],\n    /339 : [447.719, 187.902, 8.11995],\n    /398 : [417.731, 177.759, 2.82006],\n    /461 : [399.543, 239.06, -25.0577],\n    /69 : [351, 121.343, -12.9421],\n    /171 : [368.116, 320.351, 5.9109],\n    /230 : [346.088, 193.078, -2.07792],\n    /312 : [395.679, 274.996, -7.51281],\n    /371 : [420.507, 219.939, -2.78186],\n    /430 : [433.599, 289.325, 16.9238],\n    /25 : [327.975, 178.365, 2.19094],\n    /42 : [371.857, 274.279, -6.95023],\n    /101 : [344.854, 212.263, -3.94644],\n    /144 : [339.775, 179.926, -1.60645],\n    /203 : [357.328, 236.78, -4.84595],\n    /262 : [413.908, 306.678, 9.15574],\n    /285 : [412.504, 159.181, -11.9612],\n    /344 : [412.847, 230.14, -19.6169],\n    /403 : [403.235, 278.76, -5.15914],\n    /466 : [450.494, 177.116, 8.45265],\n    /74 : [369.512, 272.411, -8.35766],\n    /176 : [354.328, 318.265, 16.4337],\n    /235 : [370.563, 236.678, -13.8582],\n    /317 : [396.459, 276.256, -6.23891],\n    /376 : [463.013, 237.098, 28.1438],\n    /435 : [460.553, 254.113, 45.7403],\n    /47 : [366.997, 201.802, -7.22992],\n    /106 : [360.585, 286.592, -0.830579],\n    /149 : [342.902, 309.651, 21.6782],\n    /208 : [370.472, 312.895, 2.2763],\n    /267 : [399.921, 264.386, -13.1301],\n    /290 : [403.556, 240.317, -12.2869],\n    /349 : [424.015, 201.256, 1.21587],\n    /408 : [412.73, 276.403, -0.528548],\n    /79 : [378.204, 233.815, -21.86],\n    /181 : [372.242, 286.233, -6.93467],\n    /240 : [372.707, 239.444, -11.5369],\n    /322 : [419.737, 260.896, -3.20843],\n    /381 : [421.376, 182.371, 3.05172],\n    /440 : [408.14, 228.486, -25.3786],\n    /444 : [451.257, 162.695, 0.975738],\n    /52 : [338.772, 146.012, -11.5967],\n    /111 : [312.26, 189.616, 8.16144],\n    /154 : [361.005, 179.401, -1.4348],\n    /213 : [309.014, 245.516, 20.5801],\n    /272 : [406.857, 275.871, -3.92061],\n    /295 : [433.152, 153.15, -9.39367],\n    /354 : [397.317, 239.674, -25.8924],\n    /413 : [410.269, 173.983, -1.53201],\n    /84 : [380.122, 289.733, -7.35132],\n    /127 : [292.131, 169.109, 48.0901],\n    /186 : [353.797, 265.855, -3.97168],\n    /245 : [378.332, 183.745, -6.94656],\n    /327 : [411.738, 242.254, -5.92992],\n    /386 : [437.193, 171.411, 1.79238],\n    /449 : [444.858, 197.367, 7.05239],\n    /57 : [349.729, 273.904, 0.831596],\n    /116 : [303.147, 193.956, 14.3655],\n    /159 : [345.347, 166.717, -4.47823],\n    /218 : [375.747, 232.534, -23.1866],\n    /277 : [415.799, 203.921, -3.94067],\n    /300 : [467.688, 156.135, 12.2711],\n    /359 : [454.128, 178.661, 12.6704],\n    /418 : [410.575, 299.488, 5.55412],\n    /2 : [392, 243.672, -14.3593],\n    /13 : [390.15, 275.016, -8.59325],\n    /30 : [330.273, 163.985, -3.10196],\n    /89 : [370.34, 276.079, -5.81783],\n    /132 : [295.999, 229.311, 54.9927],\n    /191 : [369.043, 273.544, -3.58831],\n    /250 : [399.553, 239.06, -18.1092],\n    /332 : [460.871, 115.89, 9.42642],\n    /391 : [414.397, 255.34, -6.16616],\n    /454 : [470.092, 196.186, 66.7874],\n    /62 : [363.975, 274.979, -1.65509],\n    /121 : [366.114, 194.578, -4.60505],\n    /164 : [391.632, 250.244, -13.0041],\n    /223 : [342.652, 155.618, -8.71957],\n    /282 : [447.599, 152.432, -5.0027],\n    /305 : [407.581, 239.235, -10.3619],\n    /364 : [443.676, 284.376, 30.7913],\n    /423 : [422.761, 239.333, -0.79635],\n    /7 : [331.012, 175.636, 1.32054],\n    /18 : [387.838, 296.864, 0.23374],\n    /35 : [311.702, 175.394, 10.0239],\n    /94 : [392.784, 241.165, -18.6486],\n    /137 : [295.656, 210.996, 34.4851],\n    /196 : [386.426, 196.722, -20.3053],\n    /255 : [451.198, 184.163, 10.6506],\n    /337 : [419.197, 125.661, -13.2523],\n    /396 : [401.877, 320.998, 8.00915],\n    /459 : [404.997, 235.342, -22.878],\n    /67 : [345.924, 101.981, -9.09397],\n    /169 : [332.15, 293.279, 18.2827],\n    /228 : [325.906, 188.713, 2.56446],\n    /310 : [404.821, 275.348, -3.07434],\n    /369 : [414.747, 313.847, 13.7258],\n    /428 : [401.377, 313.598, 4.25058],\n    /23 : [347.242, 186.018, -3.09289],\n    /40 : [367.133, 270.049, -8.66976],\n    /99 : [381.451, 241.6, -13.5449],\n    /142 : [360.924, 217.504, -6.71424],\n    /201 : [374.215, 303.844, 1.42693],\n    /260 : [451.497, 170.331, 5.00927],\n    /283 : [457.472, 155.073, 0.746079],\n    /342 : [458.625, 172.447, 10.7478],\n    /401 : [466.184, 236.655, 47.3004],\n    /464 : [408.506, 183.194, -1.10652],\n    /72 : [382.912, 268.95, -13.6207],\n    /174 : [379.957, 200.564, -16.5362],\n    /233 : [370.538, 186.139, -2.62605],\n    /315 : [397.919, 285.262, -7.51708],\n    /374 : [434.591, 185.331, 3.49511],\n    /433 : [458.866, 250.958, 30.9587],\n    /45 : [386.953, 227.232, -31.8087],\n    /104 : [329.935, 122.507, -6.31557],\n    /147 : [306.899, 231.137, 17.2887],\n    /206 : [349.913, 245.496, -4.41361],\n    /265 : [464.458, 182.426, 20.2333],\n    /288 : [456.483, 257.446, 62.5174],\n    /347 : [449.302, 207.808, 7.03971],\n    /406 : [406.644, 292.98, 1.01249],\n    /77 : [364.814, 276.546, -3.7062],\n    /179 : [375.51, 277.575, -7.33973],\n    /238 : [385.591, 237.571, -24.3448],\n    /320 : [409.44, 280.296, -3.5355],\n    /379 : [430.995, 302.6, 33.7799],\n    /438 : [410.208, 233.688, -20.8692],\n    /50 : [325.569, 221.48, -0.227848],\n    /109 : [369.567, 100.057, -13.7312],\n    /152 : [384.222, 327.344, 13.238],\n    /211 : [346.172, 296.363, 8.97616],\n    /270 : [412.143, 272.012, -5.08479],\n    /293 : [461.772, 148.662, 3.41616],\n    /352 : [467.084, 220.385, 25.2902],\n    /411 : [453.747, 243.871, 15.7113],\n    /82 : [384.211, 274.385, -8.66793],\n    /125 : [389.608, 239.417, -26.4804],\n    /184 : [365.018, 274.14, -4.62354],\n    /243 : [370.419, 178.779, -0.450271],\n    /325 : [410.372, 277.376, -0.171337],\n    /384 : [422.576, 174.038, 1.612],\n    /447 : [473.542, 199.621, 44.5276],\n    /12 : [390.607, 273.271, -11.4241],\n    /55 : [376.022, 157.044, -14.0411],\n    /114 : [373.151, 196.544, -9.28478],\n    /157 : [360.233, 170.793, -2.97808],\n    /216 : [344.015, 257.512, -1.92553],\n    /275 : [402.382, 227.828, -30.9152],\n    /298 : [466.165, 138.023, 11.7296],\n    /357 : [410.713, 192.081, -2.69741],\n    /416 : [451.347, 262.556, 25.8269],\n    /0 : [391.362, 265.369, -14.6126],\n    /28 : [354.194, 161.713, -6.45187],\n    /87 : [383.034, 275.675, -7.43059],\n    /130 : [325.164, 172.393, 3.9054],\n    /189 : [374.511, 172.095, -3.94917],\n    /248 : [401.289, 206.577, -23.1026],\n    /330 : [435.351, 216.036, 1.98678],\n    /389 : [475.429, 158.412, 50.1645],\n    /452 : [417.392, 191.106, 1.14296],\n    /60 : [380.215, 239.458, -13.4736],\n    /119 : [345.778, 201.919, -2.56538],\n    /162 : [294.557, 149.194, 37.2048],\n    /221 : [368.151, 163.673, -6.75453],\n    /280 : [451.426, 226.573, 8.16334],\n    /303 : [405.153, 271.99, -8.83752],\n    /362 : [415.466, 180.211, 3.77287],\n    /421 : [399.21, 304.517, 2.85995],\n    /5 : [394.95, 215.348, -30.3831],\n    /16 : [389.745, 286.036, -8.46162],\n    /33 : [327.901, 172.524, 2.93347],\n    /92 : [359.496, 258.551, -7.33001],\n    /135 : [321.794, 280.887, 22.3037],\n    /194 : [361.976, 298.235, 2.46735],\n    /253 : [433.881, 190.023, 3.05028],\n    /335 : [414.185, 288.4, 2.8791],\n    /394 : [434.276, 295.864, 25.1182],\n    /457 : [405.617, 234.383, -25.7422],\n    /65 : [354.795, 148.499, -13.9668],\n    /167 : [381.304, 251.022, -13.1484],\n    /226 : [319.383, 173.958, 6.01765],\n    /308 : [411.855, 276.166, 2.29053],\n    /367 : [452.268, 271.449, 38.2843],\n    /426 : [428.904, 248.492, 0.651708],\n    /21 : [299.863, 133.299, 24.1229],\n    /38 : [383.545, 272.929, -11.2478],\n    /97 : [382.571, 243.417, -13.3709],\n    /140 : [353.974, 312.638, 9.74525],\n    /199 : [386.326, 315.461, 1.97793],\n    /258 : [429.942, 166.08, -1.37435],\n    /340 : [463.507, 196.178, 18.2205],\n    /399 : [406.533, 201.742, -14.7107],\n    /462 : [398, 240.428, -18.1058],\n    /70 : [312.656, 147.818, 1.97392],\n    /172 : [310.326, 271.832, 43.0687],\n    /231 : [356.652, 191.316, -2.68696],\n    /313 : [397.145, 296.457, 0.731961],\n    /372 : [469.679, 183.216, 26.603],\n    /431 : [423.829, 298.31, 13.8163],\n    /26 : [362.763, 183.598, -1.95524],\n    /43 : [354.697, 281.429, 0.477127],\n    /102 : [365.661, 230.117, -11.7733],\n    /145 : [347.232, 181.148, -2.66044],\n    /204 : [352.239, 291.393, 3.58127],\n    /263 : [452.151, 178.535, 11.2968],\n    /286 : [421.978, 168.911, -0.0309902],\n    /345 : [469.864, 201.011, 25.8075],\n    /404 : [404.598, 282.762, -5.75738],\n    /467 : [454.55, 173.527, 8.85527],\n    /75 : [375.754, 238.158, -12.2827],\n    /177 : [298.294, 230.347, 35.318],\n    /236 : [380.353, 209.216, -20.3885],\n    /318 : [406.219, 276.177, -2.2254],\n    /377 : [400.403, 325.311, 15.7893],\n    /436 : [432.739, 260.838, 4.02495],\n    /48 : [367.936, 231.473, -16.5962],\n    /107 : [374.11, 144.81, -17.2527],\n    /150 : [332.348, 300.422, 26.7456],\n    /209 : [368.87, 218.853, -11.6625],\n    /268 : [397.269, 273.627, -10.1227],\n    /291 : [416.297, 278.243, 4.643],\n    /350 : [416.355, 196.813, -1.13567],\n    /409 : [415.175, 275.143, -0.372501],\n    /80 : [373.342, 273.772, -5.84598],\n    /123 : [304.948, 213.846, 13.9198],\n    /182 : [368.282, 291.748, -1.6474],\n    /241 : [387.126, 238.636, -25.7428],\n    /323 : [467.343, 215.195, 68.5614],\n    /382 : [417.353, 181.198, 3.94392],\n    /441 : [417.461, 166.377, -3.45123],\n    /445 : [456.74, 166.238, 5.29053],\n    /53 : [326.647, 147.656, -7.59442],\n    /112 : [367.372, 181.461, -1.07603],\n    /155 : [365.27, 178.646, -0.140371],\n    /214 : [327.831, 270.385, 9.57146],\n    /273 : [420.065, 283.818, 5.10606],\n    /296 : [435.218, 145.666, -10.9781],\n    /355 : [414.558, 213.294, -5.75641],\n    /414 : [414.643, 175.226, 1.21226],\n    /85 : [381.188, 284.652, -8.72419],\n    /128 : [372.897, 190.367, -5.36233],\n    /187 : [319.276, 238.706, 6.64674],\n    /246 : [330.203, 171.256, 0.450008],\n    /328 : [402.154, 242.359, -12.4259],\n    /387 : [444.234, 173.045, 3.82618],\n    /450 : [434.507, 197.022, 3.98142],\n    /58 : [301.953, 252.238, 51.0933],\n    /117 : [318.255, 197.795, 3.57362],\n    /160 : [337.725, 167.744, -3.33754],\n    /219 : [370.432, 234.37, -16.8811],\n    /278 : [416.084, 233.214, -13.4595],\n    /301 : [471.339, 149.91, 23.3651],\n    /360 : [413.145, 224.233, -17.738],\n    /419 : [401.599, 197.366, -19.3411],\n    /3 : [387.379, 205.921, -24.2337],\n    /14 : [389.988, 276.213, -7.27967],\n    /31 : [321.303, 183.792, 5.09376],\n    /90 : [368.199, 278.638, -6.40675],\n    /133 : [367.281, 177.852, 0.0440901],\n    /192 : [317.397, 257.944, 16.5435],\n    /251 : [474.669, 142.645, 36.5005],\n    /333 : [456.013, 129.817, 1.70554],\n    /392 : [410.629, 236.279, -13.8175],\n    /455 : [412.664, 238.2, -11.2541],\n    /63 : [322.014, 140.575, -5.52598],\n    /122 : [385.749, 186.241, -15.2278],\n    /165 : [366.235, 253.561, -9.31924],\n    /224 : [332.558, 156.162, -6.78869],\n    /306 : [414.293, 278.071, 3.43124],\n    /365 : [441.286, 290.343, 42.5685],\n    /424 : [419.952, 293.285, 7.80063],\n    /8 : [394.564, 160.399, -14.6996],\n    /19 : [393.544, 239.916, -26.4766],\n    /36 : [350.842, 224.062, -5.63553],\n    /95 : [368.253, 274.464, -3.23253],\n    /138 : [311.75, 266.959, 28.3456],\n    /197 : [394.358, 195.328, -21.176],\n    /256 : [419.421, 186.27, 2.04421],\n    /338 : [422.702, 103.155, -10.5313],\n    /397 : [449.042, 276.013, 53.3443],\n    /460 : [409.945, 240.789, -9.40112],\n    /68 : [315.88, 129.666, 1.84381],\n    /170 : [342.556, 302.858, 14.3677],\n    /229 : [334.767, 192.513, -0.364883],\n    /311 : [400.667, 275.123, -5.4252],\n    /370 : [395.695, 240.934, -18.0662],\n    /429 : [414.319, 220.653, -8.66395],\n    /24 : [339.067, 185.092, -1.92202],\n    /41 : [377.028, 273.426, -9.9441],\n    /100 : [358.312, 206.52, -5.35606],\n    /143 : [304.327, 175.65, 15.3282],\n    /202 : [344.739, 282.79, 4.32653],\n    /261 : [456.412, 189.888, 14.1693],\n    /284 : [470.447, 127.778, 23.288],\n    /343 : [411, 198.201, -6.62363],\n    /402 : [401.947, 276.125, -4.34341],\n    /465 : [406.482, 185.081, -5.06355],\n    /73 : [375.287, 270.757, -11.268],\n    /175 : [385.38, 323.12, 5.78313],\n    /234 : [292.518, 188.298, 53.6794],\n    /316 : [397.291, 279.901, -6.87877],\n    /375 : [414.242, 280.266, 1.18827],\n    /434 : [442.589, 274.132, 17.253],\n    /46 : [317.986, 153.022, -2.41022],\n    /105 : [335.954, 137.956, -11.3854],\n    /148 : [367.405, 324.743, 13.6361],\n    /207 : [331.157, 247.507, 1.07914],\n    /266 : [429.466, 227.283, -0.641403],\n    /289 : [409.878, 237.663, -11.4492],\n    /348 : [434.645, 205.754, 3.48179],\n    /407 : [410.061, 276.819, -0.591739],\n    /78 : [364.593, 274.002, -1.75082],\n    /180 : [373.796, 281.525, -7.98259],\n    /239 : [381.512, 234.537, -24.3843],\n    /321 : [411.036, 283.202, -2.22799],\n    /380 : [427.727, 184.29, 2.70019],\n    /439 : [413.707, 235.899, -14.2253],\n    /443 : [442.413, 161.323, -2.43922],\n    /51 : [387.265, 215.819, -29.0418],\n    /110 : [331.938, 182.608, 0.18958],\n    /153 : [354.363, 180.765, -2.49783],\n    /212 : [339.429, 272.444, 3.73135],\n    /271 : [402.741, 274.55, -7.7226],\n    /294 : [415.164, 236.947, -10.1215],\n    /353 : [464.491, 170.444, 13.8459],\n    /412 : [406.276, 192.005, -10.0085],\n    /83 : [378.047, 295.82, -0.387745],\n    /126 : [368.345, 211.368, -8.92546],\n    /185 : [362.576, 272.782, -4.7821],\n    /244 : [375.31, 181.557, -3.42497],\n    /326 : [400.951, 244.147, -12.2491],\n    /385 : [429.736, 171.686, 1.02029],\n    /448 : [452.571, 194.394, 11.058],\n    /56 : [362.08, 165.475, -4.11446],\n    /115 : [373.032, 228.636, -22.1686],\n    /158 : [352.943, 167.577, -4.32819],\n    /217 : [374.099, 205.73, -12.4872],\n    /276 : [463.428, 160.896, 7.21517],\n    /299 : [438.623, 126.506, -7.49323],\n    /358 : [416.839, 232.242, -2.77067],\n    /417 : [404.067, 173.632, -9.12555],\n    /1 : [394.31, 236.065, -29.6553],\n    /10 : [396.784, 101.046, -13.5719],\n    /29 : [336.165, 161.175, -5.31008],\n    /88 : [371.57, 274.636, -5.05183],\n    /131 : [372.34, 222.594, -20.356],\n    /190 : [369.047, 172.803, -2.22209],\n    /249 : [449.47, 181.193, 9.32896],\n    /331 : [416.881, 232.086, -8.42796],\n    /390 : [446.338, 183.067, 7.54166],\n    /453 : [412.387, 188.124, 0.280093],\n    /61 : [360.167, 275.624, -0.168844],\n    /120 : [357.427, 198.354, -3.32139],\n    /163 : [334.63, 177.854, -0.0509757],\n    /222 : [354.667, 157.567, -8.68272],\n    /281 : [402.026, 216.484, -27.9795],\n    /304 : [409.622, 274.156, -5.05265],\n    /363 : [408.03, 219.42, -23.9494],\n    /422 : [427.828, 285.387, 9.70723],\n    /6 : [394.095, 184.644, -16.9338],\n    /17 : [389.218, 291.058, -6.78791],\n    /34 : [295.772, 172.978, 28.7641],\n    /93 : [293.396, 208.043, 55.7313],\n    /136 : [320.079, 287.114, 33.9058],\n    /195 : [394.635, 205.018, -25.6784],\n    /254 : [441.464, 189.778, 5.20174],\n    /336 : [416.051, 147.434, -14.9272],\n    /395 : [424.878, 304.673, 19.7657],\n    /458 : [400.63, 238.022, -23.4358],\n    /66 : [353.77, 140.661, -15.6714],\n    /168 : [393.923, 171.948, -13.6432],\n    /227 : [294.498, 191.81, 31.7574],\n    /309 : [407.611, 234.776, -19.7493],\n    /368 : [473.057, 164.269, 33.9614],\n    /427 : [443.953, 251.747, 8.35945],\n    /22 : [355.663, 185.591, -3.07591],\n    /39 : [373.099, 266.466, -11.8157],\n    /98 : [370.023, 240.71, -8.33239],\n    /141 : [389.756, 240.7, -18.4461],\n    /200 : [387.101, 305.62, 1.31263],\n    /259 : [446.744, 167.162, 2.13956],\n    /341 : [415.388, 183.805, 2.49826],\n    /400 : [412.24, 319.304, 20.5099],\n    /463 : [412.786, 180.86, 2.65056]\n  },\n  /type : \"facemeshCoordinates\"\n}"
				}

			}
, 			{
				"box" : 				{
					"id" : "obj-30",
					"maxclass" : "newobj",
					"numinlets" : 1,
					"numoutlets" : 1,
					"outlettype" : [ "" ],
					"patcher" : 					{
						"fileversion" : 1,
						"appversion" : 						{
							"major" : 8,
							"minor" : 3,
							"revision" : 1,
							"architecture" : "x64",
							"modernui" : 1
						}
,
						"classnamespace" : "box",
						"rect" : [ 34.0, 118.0, 1372.0, 748.0 ],
						"bglocked" : 0,
						"openinpresentation" : 0,
						"default_fontsize" : 12.0,
						"default_fontface" : 0,
						"default_fontname" : "Arial",
						"gridonopen" : 1,
						"gridsize" : [ 15.0, 15.0 ],
						"gridsnaponopen" : 1,
						"objectsnaponopen" : 1,
						"statusbarvisible" : 2,
						"toolbarvisible" : 1,
						"lefttoolbarpinned" : 0,
						"toptoolbarpinned" : 0,
						"righttoolbarpinned" : 0,
						"bottomtoolbarpinned" : 0,
						"toolbars_unpinned_last_save" : 0,
						"tallnewobj" : 0,
						"boxanimatetime" : 200,
						"enablehscroll" : 1,
						"enablevscroll" : 1,
						"devicewidth" : 0.0,
						"description" : "",
						"digest" : "",
						"tags" : "",
						"style" : "",
						"subpatcher_template" : "",
						"assistshowspatchername" : 0,
						"boxes" : [ 							{
								"box" : 								{
									"id" : "obj-4",
									"maxclass" : "newobj",
									"numinlets" : 1,
									"numoutlets" : 2,
									"outlettype" : [ "", "FullPacket" ],
									"patching_rect" : [ 50.0, 53.0, 76.0, 22.0 ],
									"text" : "o.route /data"
								}

							}
, 							{
								"box" : 								{
									"comment" : "",
									"id" : "obj-3",
									"index" : 1,
									"maxclass" : "outlet",
									"numinlets" : 1,
									"numoutlets" : 0,
									"patching_rect" : [ 50.0, 247.0, 30.0, 30.0 ]
								}

							}
, 							{
								"box" : 								{
									"fontface" : 0,
									"id" : "obj-2",
									"linecount" : 473,
									"maxclass" : "o.display",
									"numinlets" : 1,
									"numoutlets" : 1,
									"outlettype" : [ "" ],
									"patching_rect" : [ 92.0, 98.0, 674.0, 6077.0 ],
									"text" : "/eab9f5d5-48af-49b3-817b-891900fdab36 : {\n  /positions : {\n    /71 : [306.388, 141.136, 12.0987],\n    /173 : [365.172, 175.146, -1.286],\n    /232 : [364.797, 188.692, -2.42797],\n    /314 : [397.987, 290.37, -6.12841],\n    /373 : [441.691, 184.671, 5.38991],\n    /432 : [434.061, 275.705, 10.2397],\n    /44 : [387.71, 235.441, -29.5055],\n    /103 : [323.751, 108.011, 0.412596],\n    /146 : [362.405, 278.017, -2.75634],\n    /205 : [338.121, 233.994, -3.41072],\n    /264 : [474.235, 181.261, 41.3513],\n    /287 : [425.727, 276.855, 6.38318],\n    /346 : [458.813, 203.774, 13.0655],\n    /405 : [405.449, 287.408, -4.55632],\n    /76 : [362.279, 275.614, -0.965467],\n    /178 : [376.802, 274.995, -6.46363],\n    /237 : [381.849, 233.563, -27.2109],\n    /319 : [407.52, 277.697, -3.0011],\n    /378 : [422.034, 311.305, 27.2021],\n    /437 : [410.563, 207.289, -9.90913],\n    /49 : [367.086, 226.487, -15.1773],\n    /108 : [372.376, 122.927, -16.0959],\n    /151 : [396.218, 124.751, -15.9409],\n    /210 : [336.144, 286.664, 10.5523],\n    /269 : [407.8, 267.886, -9.24603],\n    /292 : [412.554, 277.254, 2.52307],\n    /351 : [401.6, 186.956, -14.1243],\n    /410 : [423.739, 268.592, 1.15793],\n    /81 : [378.42, 274.022, -7.47622],\n    /124 : [314.205, 163.053, 3.65256],\n    /183 : [367.467, 274.792, -4.29078],\n    /242 : [387.336, 240.034, -18.6766],\n    /324 : [408.776, 276.319, 0.285926],\n    /383 : [469.137, 167.779, 20.0213],\n    /442 : [431.039, 161.916, -3.83213],\n    /446 : [458.548, 180.504, 15.4075],\n    /11 : [391.053, 269.741, -13.7001],\n    /54 : [309.183, 118.797, 12.2204],\n    /113 : [321.155, 165.544, 1.43367],\n    /156 : [307.871, 159.776, 9.02694],\n    /215 : [302.784, 248.601, 34.4068],\n    /274 : [400.586, 235.902, -28.8123],\n    /297 : [443.458, 107.671, -2.78123],\n    /356 : [473.305, 177.721, 61.2199],\n    /415 : [408.27, 275.47, -0.0163953],\n    /27 : [344.864, 160.368, -6.94],\n    /86 : [382.255, 279.28, -8.06897],\n    /129 : [364.584, 230.228, -6.02481],\n    /188 : [379.513, 190.811, -11.8782],\n    /247 : [325.887, 167.054, 0.273207],\n    /329 : [423.205, 209.262, -0.960093],\n    /388 : [448.325, 175.471, 6.11866],\n    /451 : [424.705, 194.393, 2.07073],\n    /59 : [373.769, 236.418, -13.79],\n    /118 : [329.541, 202.767, -0.923825],\n    /161 : [332.978, 169.741, -1.57458],\n    /220 : [379.657, 227.398, -27.2891],\n    /279 : [416.599, 228.315, -11.9637],\n    /302 : [398.759, 269.648, -12.3907],\n    /361 : [463.194, 235.611, 67.2509],\n    /420 : [410.998, 215.905, -13.4108],\n    /4 : [394.958, 227.397, -32.0625],\n    /15 : [389.955, 280.674, -7.85615],\n    /32 : [356.82, 305.279, 5.48366],\n    /91 : [366.069, 281.406, -5.39211],\n    /134 : [379.611, 218.237, -25.832],\n    /193 : [382.567, 172.558, -10.5281],\n    /252 : [425.891, 188.896, 1.99724],\n    /334 : [450.839, 144.885, -4.3164],\n    /393 : [401.506, 251.825, -11.8416],\n    /456 : [406.773, 210.328, -18.5045],\n    /64 : [367.608, 235.207, -13.1521],\n    /166 : [373.644, 235.017, -16.0524],\n    /225 : [325.205, 159.238, -3.43371],\n    /307 : [412.234, 278.701, -0.019539],\n    /366 : [470.698, 218.082, 46.9563],\n    /425 : [440.041, 238.068, 2.94872],\n    /9 : [395.301, 147.88, -16.824],\n    /20 : [385.761, 238.604, -18.9346],\n    /37 : [382.485, 263.675, -14.4276],\n    /96 : [366.838, 275.4, -3.72433],\n    /139 : [300.699, 155.64, 21.8811],\n    /198 : [373.952, 214.391, -15.7991],\n    /257 : [438.947, 165.658, -0.509416],\n    /339 : [447.719, 187.902, 8.11995],\n    /398 : [417.731, 177.759, 2.82006],\n    /461 : [399.543, 239.06, -25.0577],\n    /69 : [351, 121.343, -12.9421],\n    /171 : [368.116, 320.351, 5.9109],\n    /230 : [346.088, 193.078, -2.07792],\n    /312 : [395.679, 274.996, -7.51281],\n    /371 : [420.507, 219.939, -2.78186],\n    /430 : [433.599, 289.325, 16.9238],\n    /25 : [327.975, 178.365, 2.19094],\n    /42 : [371.857, 274.279, -6.95023],\n    /101 : [344.854, 212.263, -3.94644],\n    /144 : [339.775, 179.926, -1.60645],\n    /203 : [357.328, 236.78, -4.84595],\n    /262 : [413.908, 306.678, 9.15574],\n    /285 : [412.504, 159.181, -11.9612],\n    /344 : [412.847, 230.14, -19.6169],\n    /403 : [403.235, 278.76, -5.15914],\n    /466 : [450.494, 177.116, 8.45265],\n    /74 : [369.512, 272.411, -8.35766],\n    /176 : [354.328, 318.265, 16.4337],\n    /235 : [370.563, 236.678, -13.8582],\n    /317 : [396.459, 276.256, -6.23891],\n    /376 : [463.013, 237.098, 28.1438],\n    /435 : [460.553, 254.113, 45.7403],\n    /47 : [366.997, 201.802, -7.22992],\n    /106 : [360.585, 286.592, -0.830579],\n    /149 : [342.902, 309.651, 21.6782],\n    /208 : [370.472, 312.895, 2.2763],\n    /267 : [399.921, 264.386, -13.1301],\n    /290 : [403.556, 240.317, -12.2869],\n    /349 : [424.015, 201.256, 1.21587],\n    /408 : [412.73, 276.403, -0.528548],\n    /79 : [378.204, 233.815, -21.86],\n    /181 : [372.242, 286.233, -6.93467],\n    /240 : [372.707, 239.444, -11.5369],\n    /322 : [419.737, 260.896, -3.20843],\n    /381 : [421.376, 182.371, 3.05172],\n    /440 : [408.14, 228.486, -25.3786],\n    /444 : [451.257, 162.695, 0.975738],\n    /52 : [338.772, 146.012, -11.5967],\n    /111 : [312.26, 189.616, 8.16144],\n    /154 : [361.005, 179.401, -1.4348],\n    /213 : [309.014, 245.516, 20.5801],\n    /272 : [406.857, 275.871, -3.92061],\n    /295 : [433.152, 153.15, -9.39367],\n    /354 : [397.317, 239.674, -25.8924],\n    /413 : [410.269, 173.983, -1.53201],\n    /84 : [380.122, 289.733, -7.35132],\n    /127 : [292.131, 169.109, 48.0901],\n    /186 : [353.797, 265.855, -3.97168],\n    /245 : [378.332, 183.745, -6.94656],\n    /327 : [411.738, 242.254, -5.92992],\n    /386 : [437.193, 171.411, 1.79238],\n    /449 : [444.858, 197.367, 7.05239],\n    /57 : [349.729, 273.904, 0.831596],\n    /116 : [303.147, 193.956, 14.3655],\n    /159 : [345.347, 166.717, -4.47823],\n    /218 : [375.747, 232.534, -23.1866],\n    /277 : [415.799, 203.921, -3.94067],\n    /300 : [467.688, 156.135, 12.2711],\n    /359 : [454.128, 178.661, 12.6704],\n    /418 : [410.575, 299.488, 5.55412],\n    /2 : [392, 243.672, -14.3593],\n    /13 : [390.15, 275.016, -8.59325],\n    /30 : [330.273, 163.985, -3.10196],\n    /89 : [370.34, 276.079, -5.81783],\n    /132 : [295.999, 229.311, 54.9927],\n    /191 : [369.043, 273.544, -3.58831],\n    /250 : [399.553, 239.06, -18.1092],\n    /332 : [460.871, 115.89, 9.42642],\n    /391 : [414.397, 255.34, -6.16616],\n    /454 : [470.092, 196.186, 66.7874],\n    /62 : [363.975, 274.979, -1.65509],\n    /121 : [366.114, 194.578, -4.60505],\n    /164 : [391.632, 250.244, -13.0041],\n    /223 : [342.652, 155.618, -8.71957],\n    /282 : [447.599, 152.432, -5.0027],\n    /305 : [407.581, 239.235, -10.3619],\n    /364 : [443.676, 284.376, 30.7913],\n    /423 : [422.761, 239.333, -0.79635],\n    /7 : [331.012, 175.636, 1.32054],\n    /18 : [387.838, 296.864, 0.23374],\n    /35 : [311.702, 175.394, 10.0239],\n    /94 : [392.784, 241.165, -18.6486],\n    /137 : [295.656, 210.996, 34.4851],\n    /196 : [386.426, 196.722, -20.3053],\n    /255 : [451.198, 184.163, 10.6506],\n    /337 : [419.197, 125.661, -13.2523],\n    /396 : [401.877, 320.998, 8.00915],\n    /459 : [404.997, 235.342, -22.878],\n    /67 : [345.924, 101.981, -9.09397],\n    /169 : [332.15, 293.279, 18.2827],\n    /228 : [325.906, 188.713, 2.56446],\n    /310 : [404.821, 275.348, -3.07434],\n    /369 : [414.747, 313.847, 13.7258],\n    /428 : [401.377, 313.598, 4.25058],\n    /23 : [347.242, 186.018, -3.09289],\n    /40 : [367.133, 270.049, -8.66976],\n    /99 : [381.451, 241.6, -13.5449],\n    /142 : [360.924, 217.504, -6.71424],\n    /201 : [374.215, 303.844, 1.42693],\n    /260 : [451.497, 170.331, 5.00927],\n    /283 : [457.472, 155.073, 0.746079],\n    /342 : [458.625, 172.447, 10.7478],\n    /401 : [466.184, 236.655, 47.3004],\n    /464 : [408.506, 183.194, -1.10652],\n    /72 : [382.912, 268.95, -13.6207],\n    /174 : [379.957, 200.564, -16.5362],\n    /233 : [370.538, 186.139, -2.62605],\n    /315 : [397.919, 285.262, -7.51708],\n    /374 : [434.591, 185.331, 3.49511],\n    /433 : [458.866, 250.958, 30.9587],\n    /45 : [386.953, 227.232, -31.8087],\n    /104 : [329.935, 122.507, -6.31557],\n    /147 : [306.899, 231.137, 17.2887],\n    /206 : [349.913, 245.496, -4.41361],\n    /265 : [464.458, 182.426, 20.2333],\n    /288 : [456.483, 257.446, 62.5174],\n    /347 : [449.302, 207.808, 7.03971],\n    /406 : [406.644, 292.98, 1.01249],\n    /77 : [364.814, 276.546, -3.7062],\n    /179 : [375.51, 277.575, -7.33973],\n    /238 : [385.591, 237.571, -24.3448],\n    /320 : [409.44, 280.296, -3.5355],\n    /379 : [430.995, 302.6, 33.7799],\n    /438 : [410.208, 233.688, -20.8692],\n    /50 : [325.569, 221.48, -0.227848],\n    /109 : [369.567, 100.057, -13.7312],\n    /152 : [384.222, 327.344, 13.238],\n    /211 : [346.172, 296.363, 8.97616],\n    /270 : [412.143, 272.012, -5.08479],\n    /293 : [461.772, 148.662, 3.41616],\n    /352 : [467.084, 220.385, 25.2902],\n    /411 : [453.747, 243.871, 15.7113],\n    /82 : [384.211, 274.385, -8.66793],\n    /125 : [389.608, 239.417, -26.4804],\n    /184 : [365.018, 274.14, -4.62354],\n    /243 : [370.419, 178.779, -0.450271],\n    /325 : [410.372, 277.376, -0.171337],\n    /384 : [422.576, 174.038, 1.612],\n    /447 : [473.542, 199.621, 44.5276],\n    /12 : [390.607, 273.271, -11.4241],\n    /55 : [376.022, 157.044, -14.0411],\n    /114 : [373.151, 196.544, -9.28478],\n    /157 : [360.233, 170.793, -2.97808],\n    /216 : [344.015, 257.512, -1.92553],\n    /275 : [402.382, 227.828, -30.9152],\n    /298 : [466.165, 138.023, 11.7296],\n    /357 : [410.713, 192.081, -2.69741],\n    /416 : [451.347, 262.556, 25.8269],\n    /0 : [391.362, 265.369, -14.6126],\n    /28 : [354.194, 161.713, -6.45187],\n    /87 : [383.034, 275.675, -7.43059],\n    /130 : [325.164, 172.393, 3.9054],\n    /189 : [374.511, 172.095, -3.94917],\n    /248 : [401.289, 206.577, -23.1026],\n    /330 : [435.351, 216.036, 1.98678],\n    /389 : [475.429, 158.412, 50.1645],\n    /452 : [417.392, 191.106, 1.14296],\n    /60 : [380.215, 239.458, -13.4736],\n    /119 : [345.778, 201.919, -2.56538],\n    /162 : [294.557, 149.194, 37.2048],\n    /221 : [368.151, 163.673, -6.75453],\n    /280 : [451.426, 226.573, 8.16334],\n    /303 : [405.153, 271.99, -8.83752],\n    /362 : [415.466, 180.211, 3.77287],\n    /421 : [399.21, 304.517, 2.85995],\n    /5 : [394.95, 215.348, -30.3831],\n    /16 : [389.745, 286.036, -8.46162],\n    /33 : [327.901, 172.524, 2.93347],\n    /92 : [359.496, 258.551, -7.33001],\n    /135 : [321.794, 280.887, 22.3037],\n    /194 : [361.976, 298.235, 2.46735],\n    /253 : [433.881, 190.023, 3.05028],\n    /335 : [414.185, 288.4, 2.8791],\n    /394 : [434.276, 295.864, 25.1182],\n    /457 : [405.617, 234.383, -25.7422],\n    /65 : [354.795, 148.499, -13.9668],\n    /167 : [381.304, 251.022, -13.1484],\n    /226 : [319.383, 173.958, 6.01765],\n    /308 : [411.855, 276.166, 2.29053],\n    /367 : [452.268, 271.449, 38.2843],\n    /426 : [428.904, 248.492, 0.651708],\n    /21 : [299.863, 133.299, 24.1229],\n    /38 : [383.545, 272.929, -11.2478],\n    /97 : [382.571, 243.417, -13.3709],\n    /140 : [353.974, 312.638, 9.74525],\n    /199 : [386.326, 315.461, 1.97793],\n    /258 : [429.942, 166.08, -1.37435],\n    /340 : [463.507, 196.178, 18.2205],\n    /399 : [406.533, 201.742, -14.7107],\n    /462 : [398, 240.428, -18.1058],\n    /70 : [312.656, 147.818, 1.97392],\n    /172 : [310.326, 271.832, 43.0687],\n    /231 : [356.652, 191.316, -2.68696],\n    /313 : [397.145, 296.457, 0.731961],\n    /372 : [469.679, 183.216, 26.603],\n    /431 : [423.829, 298.31, 13.8163],\n    /26 : [362.763, 183.598, -1.95524],\n    /43 : [354.697, 281.429, 0.477127],\n    /102 : [365.661, 230.117, -11.7733],\n    /145 : [347.232, 181.148, -2.66044],\n    /204 : [352.239, 291.393, 3.58127],\n    /263 : [452.151, 178.535, 11.2968],\n    /286 : [421.978, 168.911, -0.0309902],\n    /345 : [469.864, 201.011, 25.8075],\n    /404 : [404.598, 282.762, -5.75738],\n    /467 : [454.55, 173.527, 8.85527],\n    /75 : [375.754, 238.158, -12.2827],\n    /177 : [298.294, 230.347, 35.318],\n    /236 : [380.353, 209.216, -20.3885],\n    /318 : [406.219, 276.177, -2.2254],\n    /377 : [400.403, 325.311, 15.7893],\n    /436 : [432.739, 260.838, 4.02495],\n    /48 : [367.936, 231.473, -16.5962],\n    /107 : [374.11, 144.81, -17.2527],\n    /150 : [332.348, 300.422, 26.7456],\n    /209 : [368.87, 218.853, -11.6625],\n    /268 : [397.269, 273.627, -10.1227],\n    /291 : [416.297, 278.243, 4.643],\n    /350 : [416.355, 196.813, -1.13567],\n    /409 : [415.175, 275.143, -0.372501],\n    /80 : [373.342, 273.772, -5.84598],\n    /123 : [304.948, 213.846, 13.9198],\n    /182 : [368.282, 291.748, -1.6474],\n    /241 : [387.126, 238.636, -25.7428],\n    /323 : [467.343, 215.195, 68.5614],\n    /382 : [417.353, 181.198, 3.94392],\n    /441 : [417.461, 166.377, -3.45123],\n    /445 : [456.74, 166.238, 5.29053],\n    /53 : [326.647, 147.656, -7.59442],\n    /112 : [367.372, 181.461, -1.07603],\n    /155 : [365.27, 178.646, -0.140371],\n    /214 : [327.831, 270.385, 9.57146],\n    /273 : [420.065, 283.818, 5.10606],\n    /296 : [435.218, 145.666, -10.9781],\n    /355 : [414.558, 213.294, -5.75641],\n    /414 : [414.643, 175.226, 1.21226],\n    /85 : [381.188, 284.652, -8.72419],\n    /128 : [372.897, 190.367, -5.36233],\n    /187 : [319.276, 238.706, 6.64674],\n    /246 : [330.203, 171.256, 0.450008],\n    /328 : [402.154, 242.359, -12.4259],\n    /387 : [444.234, 173.045, 3.82618],\n    /450 : [434.507, 197.022, 3.98142],\n    /58 : [301.953, 252.238, 51.0933],\n    /117 : [318.255, 197.795, 3.57362],\n    /160 : [337.725, 167.744, -3.33754],\n    /219 : [370.432, 234.37, -16.8811],\n    /278 : [416.084, 233.214, -13.4595],\n    /301 : [471.339, 149.91, 23.3651],\n    /360 : [413.145, 224.233, -17.738],\n    /419 : [401.599, 197.366, -19.3411],\n    /3 : [387.379, 205.921, -24.2337],\n    /14 : [389.988, 276.213, -7.27967],\n    /31 : [321.303, 183.792, 5.09376],\n    /90 : [368.199, 278.638, -6.40675],\n    /133 : [367.281, 177.852, 0.0440901],\n    /192 : [317.397, 257.944, 16.5435],\n    /251 : [474.669, 142.645, 36.5005],\n    /333 : [456.013, 129.817, 1.70554],\n    /392 : [410.629, 236.279, -13.8175],\n    /455 : [412.664, 238.2, -11.2541],\n    /63 : [322.014, 140.575, -5.52598],\n    /122 : [385.749, 186.241, -15.2278],\n    /165 : [366.235, 253.561, -9.31924],\n    /224 : [332.558, 156.162, -6.78869],\n    /306 : [414.293, 278.071, 3.43124],\n    /365 : [441.286, 290.343, 42.5685],\n    /424 : [419.952, 293.285, 7.80063],\n    /8 : [394.564, 160.399, -14.6996],\n    /19 : [393.544, 239.916, -26.4766],\n    /36 : [350.842, 224.062, -5.63553],\n    /95 : [368.253, 274.464, -3.23253],\n    /138 : [311.75, 266.959, 28.3456],\n    /197 : [394.358, 195.328, -21.176],\n    /256 : [419.421, 186.27, 2.04421],\n    /338 : [422.702, 103.155, -10.5313],\n    /397 : [449.042, 276.013, 53.3443],\n    /460 : [409.945, 240.789, -9.40112],\n    /68 : [315.88, 129.666, 1.84381],\n    /170 : [342.556, 302.858, 14.3677],\n    /229 : [334.767, 192.513, -0.364883],\n    /311 : [400.667, 275.123, -5.4252],\n    /370 : [395.695, 240.934, -18.0662],\n    /429 : [414.319, 220.653, -8.66395],\n    /24 : [339.067, 185.092, -1.92202],\n    /41 : [377.028, 273.426, -9.9441],\n    /100 : [358.312, 206.52, -5.35606],\n    /143 : [304.327, 175.65, 15.3282],\n    /202 : [344.739, 282.79, 4.32653],\n    /261 : [456.412, 189.888, 14.1693],\n    /284 : [470.447, 127.778, 23.288],\n    /343 : [411, 198.201, -6.62363],\n    /402 : [401.947, 276.125, -4.34341],\n    /465 : [406.482, 185.081, -5.06355],\n    /73 : [375.287, 270.757, -11.268],\n    /175 : [385.38, 323.12, 5.78313],\n    /234 : [292.518, 188.298, 53.6794],\n    /316 : [397.291, 279.901, -6.87877],\n    /375 : [414.242, 280.266, 1.18827],\n    /434 : [442.589, 274.132, 17.253],\n    /46 : [317.986, 153.022, -2.41022],\n    /105 : [335.954, 137.956, -11.3854],\n    /148 : [367.405, 324.743, 13.6361],\n    /207 : [331.157, 247.507, 1.07914],\n    /266 : [429.466, 227.283, -0.641403],\n    /289 : [409.878, 237.663, -11.4492],\n    /348 : [434.645, 205.754, 3.48179],\n    /407 : [410.061, 276.819, -0.591739],\n    /78 : [364.593, 274.002, -1.75082],\n    /180 : [373.796, 281.525, -7.98259],\n    /239 : [381.512, 234.537, -24.3843],\n    /321 : [411.036, 283.202, -2.22799],\n    /380 : [427.727, 184.29, 2.70019],\n    /439 : [413.707, 235.899, -14.2253],\n    /443 : [442.413, 161.323, -2.43922],\n    /51 : [387.265, 215.819, -29.0418],\n    /110 : [331.938, 182.608, 0.18958],\n    /153 : [354.363, 180.765, -2.49783],\n    /212 : [339.429, 272.444, 3.73135],\n    /271 : [402.741, 274.55, -7.7226],\n    /294 : [415.164, 236.947, -10.1215],\n    /353 : [464.491, 170.444, 13.8459],\n    /412 : [406.276, 192.005, -10.0085],\n    /83 : [378.047, 295.82, -0.387745],\n    /126 : [368.345, 211.368, -8.92546],\n    /185 : [362.576, 272.782, -4.7821],\n    /244 : [375.31, 181.557, -3.42497],\n    /326 : [400.951, 244.147, -12.2491],\n    /385 : [429.736, 171.686, 1.02029],\n    /448 : [452.571, 194.394, 11.058],\n    /56 : [362.08, 165.475, -4.11446],\n    /115 : [373.032, 228.636, -22.1686],\n    /158 : [352.943, 167.577, -4.32819],\n    /217 : [374.099, 205.73, -12.4872],\n    /276 : [463.428, 160.896, 7.21517],\n    /299 : [438.623, 126.506, -7.49323],\n    /358 : [416.839, 232.242, -2.77067],\n    /417 : [404.067, 173.632, -9.12555],\n    /1 : [394.31, 236.065, -29.6553],\n    /10 : [396.784, 101.046, -13.5719],\n    /29 : [336.165, 161.175, -5.31008],\n    /88 : [371.57, 274.636, -5.05183],\n    /131 : [372.34, 222.594, -20.356],\n    /190 : [369.047, 172.803, -2.22209],\n    /249 : [449.47, 181.193, 9.32896],\n    /331 : [416.881, 232.086, -8.42796],\n    /390 : [446.338, 183.067, 7.54166],\n    /453 : [412.387, 188.124, 0.280093],\n    /61 : [360.167, 275.624, -0.168844],\n    /120 : [357.427, 198.354, -3.32139],\n    /163 : [334.63, 177.854, -0.0509757],\n    /222 : [354.667, 157.567, -8.68272],\n    /281 : [402.026, 216.484, -27.9795],\n    /304 : [409.622, 274.156, -5.05265],\n    /363 : [408.03, 219.42, -23.9494],\n    /422 : [427.828, 285.387, 9.70723],\n    /6 : [394.095, 184.644, -16.9338],\n    /17 : [389.218, 291.058, -6.78791],\n    /34 : [295.772, 172.978, 28.7641],\n    /93 : [293.396, 208.043, 55.7313],\n    /136 : [320.079, 287.114, 33.9058],\n    /195 : [394.635, 205.018, -25.6784],\n    /254 : [441.464, 189.778, 5.20174],\n    /336 : [416.051, 147.434, -14.9272],\n    /395 : [424.878, 304.673, 19.7657],\n    /458 : [400.63, 238.022, -23.4358],\n    /66 : [353.77, 140.661, -15.6714],\n    /168 : [393.923, 171.948, -13.6432],\n    /227 : [294.498, 191.81, 31.7574],\n    /309 : [407.611, 234.776, -19.7493],\n    /368 : [473.057, 164.269, 33.9614],\n    /427 : [443.953, 251.747, 8.35945],\n    /22 : [355.663, 185.591, -3.07591],\n    /39 : [373.099, 266.466, -11.8157],\n    /98 : [370.023, 240.71, -8.33239],\n    /141 : [389.756, 240.7, -18.4461],\n    /200 : [387.101, 305.62, 1.31263],\n    /259 : [446.744, 167.162, 2.13956],\n    /341 : [415.388, 183.805, 2.49826],\n    /400 : [412.24, 319.304, 20.5099],\n    /463 : [412.786, 180.86, 2.65056]\n  },\n  /type : \"facemeshCoordinates\"\n}"
								}

							}
, 							{
								"box" : 								{
									"comment" : "",
									"id" : "obj-30",
									"index" : 1,
									"maxclass" : "inlet",
									"numinlets" : 0,
									"numoutlets" : 1,
									"outlettype" : [ "FullPacket" ],
									"patching_rect" : [ 50.0, 18.0, 30.0, 30.0 ]
								}

							}
 ],
						"lines" : [ 							{
								"patchline" : 								{
									"destination" : [ "obj-4", 0 ],
									"source" : [ "obj-30", 0 ]
								}

							}
, 							{
								"patchline" : 								{
									"destination" : [ "obj-2", 0 ],
									"midpoints" : [ 59.5, 83.5, 101.5, 83.5 ],
									"order" : 0,
									"source" : [ "obj-4", 0 ]
								}

							}
, 							{
								"patchline" : 								{
									"destination" : [ "obj-3", 0 ],
									"order" : 1,
									"source" : [ "obj-4", 0 ]
								}

							}
 ]
					}
,
					"patching_rect" : [ 12.5, 499.0, 123.0, 22.0 ],
					"saved_object_attributes" : 					{
						"description" : "",
						"digest" : "",
						"globalpatchername" : "",
						"tags" : ""
					}
,
					"text" : "p handle_coordinates"
				}

			}
, 			{
				"box" : 				{
					"id" : "obj-21",
					"maxclass" : "newobj",
					"numinlets" : 2,
					"numoutlets" : 1,
					"outlettype" : [ "bang" ],
					"patching_rect" : [ 13.5, 13.0, 113.0, 22.0 ],
					"text" : "metro 50 @active 1"
				}

			}
, 			{
				"box" : 				{
					"fontname" : "Arial",
					"fontsize" : 13.0,
					"format" : 6,
					"id" : "obj-54",
					"maxclass" : "flonum",
					"numinlets" : 1,
					"numoutlets" : 2,
					"outlettype" : [ "", "bang" ],
					"parameter_enable" : 0,
					"patching_rect" : [ 13.5, 62.0, 57.0, 23.0 ],
					"triangle" : 0,
					"triscale" : 0.9
				}

			}
, 			{
				"box" : 				{
					"fontname" : "Arial",
					"fontsize" : 13.0,
					"id" : "obj-56",
					"maxclass" : "newobj",
					"numinlets" : 2,
					"numoutlets" : 2,
					"outlettype" : [ "", "int" ],
					"patching_rect" : [ 13.5, 37.0, 84.0, 23.0 ],
					"text" : "adstatus cpu"
				}

			}
, 			{
				"box" : 				{
					"id" : "obj-25",
					"maxclass" : "newobj",
					"numinlets" : 1,
					"numoutlets" : 1,
					"outlettype" : [ "" ],
					"patcher" : 					{
						"fileversion" : 1,
						"appversion" : 						{
							"major" : 8,
							"minor" : 3,
							"revision" : 1,
							"architecture" : "x64",
							"modernui" : 1
						}
,
						"classnamespace" : "box",
						"rect" : [ 34.0, 90.0, 1372.0, 776.0 ],
						"bglocked" : 0,
						"openinpresentation" : 0,
						"default_fontsize" : 12.0,
						"default_fontface" : 0,
						"default_fontname" : "Arial",
						"gridonopen" : 1,
						"gridsize" : [ 15.0, 15.0 ],
						"gridsnaponopen" : 1,
						"objectsnaponopen" : 1,
						"statusbarvisible" : 2,
						"toolbarvisible" : 1,
						"lefttoolbarpinned" : 0,
						"toptoolbarpinned" : 0,
						"righttoolbarpinned" : 0,
						"bottomtoolbarpinned" : 0,
						"toolbars_unpinned_last_save" : 0,
						"tallnewobj" : 0,
						"boxanimatetime" : 200,
						"enablehscroll" : 1,
						"enablevscroll" : 1,
						"devicewidth" : 0.0,
						"description" : "",
						"digest" : "",
						"tags" : "",
						"style" : "",
						"subpatcher_template" : "",
						"assistshowspatchername" : 0,
						"boxes" : [ 							{
								"box" : 								{
									"id" : "obj-3",
									"maxclass" : "newobj",
									"numinlets" : 1,
									"numoutlets" : 2,
									"outlettype" : [ "", "FullPacket" ],
									"patching_rect" : [ 50.000040666666791, 219.5, 62.0, 22.0 ],
									"text" : "o.route /id"
								}

							}
, 							{
								"box" : 								{
									"comment" : "",
									"id" : "obj-2",
									"index" : 1,
									"maxclass" : "outlet",
									"numinlets" : 1,
									"numoutlets" : 0,
									"patching_rect" : [ 50.000040666666791, 251.0, 30.0, 30.0 ]
								}

							}
, 							{
								"box" : 								{
									"id" : "obj-1",
									"maxclass" : "newobj",
									"numinlets" : 1,
									"numoutlets" : 2,
									"outlettype" : [ "", "FullPacket" ],
									"patching_rect" : [ 50.000040666666791, 72.0, 76.0, 22.0 ],
									"text" : "o.route /data"
								}

							}
, 							{
								"box" : 								{
									"fontface" : 0,
									"id" : "obj-37",
									"linecount" : 3,
									"maxclass" : "o.display",
									"numinlets" : 1,
									"numoutlets" : 1,
									"outlettype" : [ "" ],
									"patching_rect" : [ 114.000040666666791, 115.0, 286.0, 59.0 ],
									"text" : "/id : \"c0fa97e2-9911-4565-8bef-afcae408c6ff\",\n/type : \"clientDisconnected\""
								}

							}
, 							{
								"box" : 								{
									"comment" : "",
									"id" : "obj-17",
									"index" : 1,
									"maxclass" : "inlet",
									"numinlets" : 0,
									"numoutlets" : 1,
									"outlettype" : [ "FullPacket" ],
									"patching_rect" : [ 50.000040666666791, 40.0, 30.0, 30.0 ]
								}

							}
 ],
						"lines" : [ 							{
								"patchline" : 								{
									"destination" : [ "obj-3", 0 ],
									"order" : 1,
									"source" : [ "obj-1", 0 ]
								}

							}
, 							{
								"patchline" : 								{
									"destination" : [ "obj-37", 0 ],
									"midpoints" : [ 59.500040666666791, 104.0, 123.500040666666791, 104.0 ],
									"order" : 0,
									"source" : [ "obj-1", 0 ]
								}

							}
, 							{
								"patchline" : 								{
									"destination" : [ "obj-1", 0 ],
									"source" : [ "obj-17", 0 ]
								}

							}
, 							{
								"patchline" : 								{
									"destination" : [ "obj-2", 0 ],
									"source" : [ "obj-3", 0 ]
								}

							}
 ]
					}
,
					"patching_rect" : [ 584.0, 519.5, 162.0, 22.0 ],
					"saved_object_attributes" : 					{
						"description" : "",
						"digest" : "",
						"globalpatchername" : "",
						"tags" : ""
					}
,
					"text" : "p handle_clientDisconnected"
				}

			}
, 			{
				"box" : 				{
					"fontface" : 0,
					"id" : "obj-38",
					"linecount" : 6,
					"maxclass" : "o.display",
					"numinlets" : 1,
					"numoutlets" : 1,
					"outlettype" : [ "" ],
					"patching_rect" : [ 774.5, 505.5, 278.0, 97.0 ],
					"text" : "/type : \"wsId\",\n/data : {\n  /id : \"20265070-8c06-4407-9934-30e9c036428c\",\n  /type : \"id\"\n}"
				}

			}
, 			{
				"box" : 				{
					"id" : "obj-36",
					"maxclass" : "newobj",
					"numinlets" : 1,
					"numoutlets" : 1,
					"outlettype" : [ "" ],
					"patcher" : 					{
						"fileversion" : 1,
						"appversion" : 						{
							"major" : 8,
							"minor" : 3,
							"revision" : 1,
							"architecture" : "x64",
							"modernui" : 1
						}
,
						"classnamespace" : "box",
						"rect" : [ 34.0, 90.0, 1372.0, 776.0 ],
						"bglocked" : 0,
						"openinpresentation" : 0,
						"default_fontsize" : 12.0,
						"default_fontface" : 0,
						"default_fontname" : "Arial",
						"gridonopen" : 1,
						"gridsize" : [ 15.0, 15.0 ],
						"gridsnaponopen" : 1,
						"objectsnaponopen" : 1,
						"statusbarvisible" : 2,
						"toolbarvisible" : 1,
						"lefttoolbarpinned" : 0,
						"toptoolbarpinned" : 0,
						"righttoolbarpinned" : 0,
						"bottomtoolbarpinned" : 0,
						"toolbars_unpinned_last_save" : 0,
						"tallnewobj" : 0,
						"boxanimatetime" : 200,
						"enablehscroll" : 1,
						"enablevscroll" : 1,
						"devicewidth" : 0.0,
						"description" : "",
						"digest" : "",
						"tags" : "",
						"style" : "",
						"subpatcher_template" : "",
						"assistshowspatchername" : 0,
						"boxes" : [ 							{
								"box" : 								{
									"comment" : "",
									"id" : "obj-3",
									"index" : 1,
									"maxclass" : "outlet",
									"numinlets" : 1,
									"numoutlets" : 0,
									"patching_rect" : [ 50.0, 239.0, 30.0, 30.0 ]
								}

							}
, 							{
								"box" : 								{
									"id" : "obj-2",
									"maxclass" : "newobj",
									"numinlets" : 1,
									"numoutlets" : 2,
									"outlettype" : [ "", "FullPacket" ],
									"patching_rect" : [ 50.0, 74.0, 76.0, 22.0 ],
									"text" : "o.route /data"
								}

							}
, 							{
								"box" : 								{
									"id" : "obj-1",
									"maxclass" : "newobj",
									"numinlets" : 1,
									"numoutlets" : 2,
									"outlettype" : [ "", "FullPacket" ],
									"patching_rect" : [ 50.0, 209.5, 62.0, 22.0 ],
									"text" : "o.route /id"
								}

							}
, 							{
								"box" : 								{
									"fontface" : 0,
									"id" : "obj-25",
									"linecount" : 2,
									"maxclass" : "o.display",
									"numinlets" : 1,
									"numoutlets" : 1,
									"outlettype" : [ "" ],
									"patching_rect" : [ 114.0, 111.0, 395.0, 46.0 ],
									"text" : "/id : \"eab9f5d5-48af-49b3-817b-891900fdab36\",\n/type : \"clientConnected\""
								}

							}
, 							{
								"box" : 								{
									"comment" : "",
									"id" : "obj-35",
									"index" : 1,
									"maxclass" : "inlet",
									"numinlets" : 0,
									"numoutlets" : 1,
									"outlettype" : [ "FullPacket" ],
									"patching_rect" : [ 50.0, 40.0, 30.0, 30.0 ]
								}

							}
 ],
						"lines" : [ 							{
								"patchline" : 								{
									"destination" : [ "obj-3", 0 ],
									"source" : [ "obj-1", 0 ]
								}

							}
, 							{
								"patchline" : 								{
									"destination" : [ "obj-1", 0 ],
									"order" : 1,
									"source" : [ "obj-2", 0 ]
								}

							}
, 							{
								"patchline" : 								{
									"destination" : [ "obj-25", 0 ],
									"midpoints" : [ 59.5, 98.0, 123.5, 98.0 ],
									"order" : 0,
									"source" : [ "obj-2", 0 ]
								}

							}
, 							{
								"patchline" : 								{
									"destination" : [ "obj-2", 0 ],
									"source" : [ "obj-35", 0 ]
								}

							}
 ]
					}
,
					"patching_rect" : [ 393.5, 523.0, 147.0, 22.0 ],
					"saved_object_attributes" : 					{
						"description" : "",
						"digest" : "",
						"globalpatchername" : "",
						"tags" : ""
					}
,
					"text" : "p handle_clientConnected"
				}

			}
, 			{
				"box" : 				{
					"fontname" : "Arial",
					"fontsize" : 12.0,
					"id" : "obj-6",
					"maxclass" : "newobj",
					"numinlets" : 1,
					"numoutlets" : 4,
					"outlettype" : [ "FullPacket", "FullPacket", "FullPacket", "FullPacket" ],
					"patching_rect" : [ 12.5, 475.0, 595.0, 22.0 ],
					"text" : "o.cond /type == coordinates\\, /type == clientConnected\\, /type == clientDisconnected"
				}

			}
, 			{
				"box" : 				{
					"id" : "obj-4",
					"maxclass" : "newobj",
					"numinlets" : 2,
					"numoutlets" : 1,
					"outlettype" : [ "bang" ],
					"patching_rect" : [ 422.252834467120294, 121.5, 55.0, 22.0 ],
					"text" : "del 5000"
				}

			}
, 			{
				"box" : 				{
					"id" : "obj-27",
					"maxclass" : "message",
					"numinlets" : 2,
					"numoutlets" : 1,
					"outlettype" : [ "" ],
					"patching_rect" : [ 1335.0, 150.5, 117.0, 22.0 ],
					"text" : "script npm install"
				}

			}
, 			{
				"box" : 				{
					"bgcolor" : [ 0.662745098039216, 0.8, 0.815686274509804, 1.0 ],
					"fontname" : "Apple Chancery",
					"fontsize" : 50.0,
					"id" : "obj-26",
					"maxclass" : "textbutton",
					"numinlets" : 1,
					"numoutlets" : 3,
					"outlettype" : [ "", "", "int" ],
					"parameter_enable" : 0,
					"patching_rect" : [ 814.0, 65.5, 201.0, 71.0 ],
					"text" : "START",
					"textoncolor" : [ 1.0, 1.0, 1.0, 1.0 ]
				}

			}
, 			{
				"box" : 				{
					"id" : "obj-2",
					"maxclass" : "newobj",
					"numinlets" : 0,
					"numoutlets" : 1,
					"outlettype" : [ "" ],
					"patching_rect" : [ 12.5, 120.5, 67.0, 22.0 ],
					"text" : "r ws_ready"
				}

			}
, 			{
				"box" : 				{
					"id" : "obj-28",
					"maxclass" : "newobj",
					"numinlets" : 0,
					"numoutlets" : 1,
					"outlettype" : [ "" ],
					"patching_rect" : [ 422.252834467120294, 97.5, 67.0, 22.0 ],
					"text" : "r ws_ready"
				}

			}
, 			{
				"box" : 				{
					"id" : "obj-23",
					"maxclass" : "newobj",
					"numinlets" : 0,
					"numoutlets" : 1,
					"outlettype" : [ "" ],
					"patching_rect" : [ 1216.0, 126.5, 67.0, 22.0 ],
					"text" : "r ws_ready"
				}

			}
, 			{
				"box" : 				{
					"id" : "obj-22",
					"maxclass" : "newobj",
					"numinlets" : 1,
					"numoutlets" : 0,
					"patching_rect" : [ 814.0, 445.0, 69.0, 22.0 ],
					"text" : "s ws_ready"
				}

			}
, 			{
				"box" : 				{
					"id" : "obj-5",
					"maxclass" : "newobj",
					"numinlets" : 2,
					"numoutlets" : 2,
					"outlettype" : [ "", "" ],
					"patching_rect" : [ 814.0, 421.0, 91.0, 22.0 ],
					"text" : "route ws_ready"
				}

			}
, 			{
				"box" : 				{
					"id" : "obj-20",
					"maxclass" : "message",
					"numinlets" : 2,
					"numoutlets" : 1,
					"outlettype" : [ "" ],
					"patching_rect" : [ 422.252834467120294, 145.5, 214.0, 22.0 ],
					"text" : "url http://127.0.0.1:8080/client/lips.html"
				}

			}
, 			{
				"box" : 				{
					"bgmode" : 0,
					"border" : 0,
					"clickthrough" : 0,
					"enablehscroll" : 0,
					"enablevscroll" : 0,
					"id" : "obj-16",
					"lockeddragscroll" : 0,
					"lockedsize" : 0,
					"maxclass" : "bpatcher",
					"name" : "n4m.monitor.maxpat",
					"numinlets" : 1,
					"numoutlets" : 1,
					"offset" : [ 0.0, 0.0 ],
					"outlettype" : [ "bang" ],
					"patching_rect" : [ 1216.0, 198.5, 400.0, 220.0 ],
					"viewvisibility" : 1
				}

			}
, 			{
				"box" : 				{
					"id" : "obj-15",
					"maxclass" : "newobj",
					"numinlets" : 1,
					"numoutlets" : 2,
					"outlettype" : [ "", "" ],
					"patching_rect" : [ 1216.0, 174.5, 137.0, 22.0 ],
					"saved_object_attributes" : 					{
						"autostart" : 0,
						"defer" : 0,
						"watch" : 0
					}
,
					"text" : "node.script ws_server.js"
				}

			}
, 			{
				"box" : 				{
					"id" : "obj-14",
					"maxclass" : "message",
					"numinlets" : 2,
					"numoutlets" : 1,
					"outlettype" : [ "" ],
					"patching_rect" : [ 1216.0, 150.5, 117.0, 22.0 ],
					"text" : "script npm run serve"
				}

			}
, 			{
				"box" : 				{
					"id" : "obj-7",
					"maxclass" : "message",
					"numinlets" : 2,
					"numoutlets" : 1,
					"outlettype" : [ "" ],
					"patching_rect" : [ 883.5, 144.5, 63.0, 22.0 ],
					"text" : "script stop"
				}

			}
, 			{
				"box" : 				{
					"id" : "obj-8",
					"maxclass" : "message",
					"numinlets" : 2,
					"numoutlets" : 1,
					"outlettype" : [ "" ],
					"patching_rect" : [ 814.0, 144.5, 66.0, 22.0 ],
					"text" : "script start"
				}

			}
, 			{
				"box" : 				{
					"bgmode" : 0,
					"border" : 0,
					"clickthrough" : 0,
					"enablehscroll" : 0,
					"enablevscroll" : 0,
					"id" : "obj-10",
					"lockeddragscroll" : 0,
					"lockedsize" : 0,
					"maxclass" : "bpatcher",
					"name" : "n4m.monitor.maxpat",
					"numinlets" : 1,
					"numoutlets" : 1,
					"offset" : [ 0.0, 0.0 ],
					"outlettype" : [ "bang" ],
					"patching_rect" : [ 814.0, 198.5, 400.0, 220.0 ],
					"viewvisibility" : 1
				}

			}
, 			{
				"box" : 				{
					"id" : "obj-11",
					"maxclass" : "newobj",
					"numinlets" : 1,
					"numoutlets" : 2,
					"outlettype" : [ "", "" ],
					"patching_rect" : [ 814.0, 174.5, 193.0, 22.0 ],
					"saved_object_attributes" : 					{
						"autostart" : 0,
						"defer" : 0,
						"node_bin_path" : "",
						"npm_bin_path" : "",
						"watch" : 1
					}
,
					"text" : "node.script ws_server.js @watch 1"
				}

			}
, 			{
				"box" : 				{
					"fontsize" : 12.0,
					"id" : "obj-31",
					"maxclass" : "message",
					"numinlets" : 2,
					"numoutlets" : 1,
					"outlettype" : [ "" ],
					"patching_rect" : [ 533.747165532880103, 173.166916167664681, 42.0, 22.0 ],
					"text" : "reload"
				}

			}
, 			{
				"box" : 				{
					"id" : "obj-57",
					"maxclass" : "jweb",
					"numinlets" : 1,
					"numoutlets" : 1,
					"outlettype" : [ "" ],
					"patching_rect" : [ 422.252834467120294, 198.5, 184.494331065759695, 127.333832335329305 ],
					"presentation" : 1,
					"presentation_rect" : [ 40.0, 35.0, 385.0, 258.0 ],
					"rendermode" : 2,
					"url" : "http://127.0.0.1:8080/client/lips.html"
				}

			}
, 			{
				"box" : 				{
					"id" : "obj-12",
					"maxclass" : "message",
					"numinlets" : 2,
					"numoutlets" : 1,
					"outlettype" : [ "" ],
					"patching_rect" : [ 82.0, 144.5, 63.0, 22.0 ],
					"text" : "script stop"
				}

			}
, 			{
				"box" : 				{
					"id" : "obj-13",
					"maxclass" : "message",
					"numinlets" : 2,
					"numoutlets" : 1,
					"outlettype" : [ "" ],
					"patching_rect" : [ 12.5, 144.5, 66.0, 22.0 ],
					"text" : "script start"
				}

			}
, 			{
				"box" : 				{
					"bgmode" : 0,
					"border" : 0,
					"clickthrough" : 0,
					"enablehscroll" : 0,
					"enablevscroll" : 0,
					"id" : "obj-3",
					"lockeddragscroll" : 0,
					"lockedsize" : 0,
					"maxclass" : "bpatcher",
					"name" : "n4m.monitor.maxpat",
					"numinlets" : 1,
					"numoutlets" : 1,
					"offset" : [ 0.0, 0.0 ],
					"outlettype" : [ "bang" ],
					"patching_rect" : [ 12.5, 198.5, 400.0, 220.0 ],
					"viewvisibility" : 1
				}

			}
, 			{
				"box" : 				{
					"id" : "obj-1",
					"maxclass" : "newobj",
					"numinlets" : 1,
					"numoutlets" : 2,
					"outlettype" : [ "", "" ],
					"patching_rect" : [ 12.5, 174.5, 197.0, 22.0 ],
					"saved_object_attributes" : 					{
						"autostart" : 0,
						"defer" : 0,
						"node_bin_path" : "",
						"npm_bin_path" : "",
						"watch" : 1
					}
,
					"text" : "node.script max_client.js @watch 1"
				}

			}
 ],
		"lines" : [ 			{
				"patchline" : 				{
					"destination" : [ "obj-3", 0 ],
					"midpoints" : [ 200.0, 199.0, 22.0, 199.0 ],
					"source" : [ "obj-1", 1 ]
				}

			}
, 			{
				"patchline" : 				{
					"destination" : [ "obj-6", 0 ],
					"midpoints" : [ 22.0, 308.25, 22.0, 308.25 ],
					"source" : [ "obj-1", 0 ]
				}

			}
, 			{
				"patchline" : 				{
					"destination" : [ "obj-10", 0 ],
					"midpoints" : [ 997.5, 199.0, 823.5, 199.0 ],
					"source" : [ "obj-11", 1 ]
				}

			}
, 			{
				"patchline" : 				{
					"destination" : [ "obj-5", 0 ],
					"source" : [ "obj-11", 0 ]
				}

			}
, 			{
				"patchline" : 				{
					"destination" : [ "obj-1", 0 ],
					"source" : [ "obj-12", 0 ]
				}

			}
, 			{
				"patchline" : 				{
					"destination" : [ "obj-1", 0 ],
					"source" : [ "obj-13", 0 ]
				}

			}
, 			{
				"patchline" : 				{
					"destination" : [ "obj-15", 0 ],
					"source" : [ "obj-14", 0 ]
				}

			}
, 			{
				"patchline" : 				{
					"destination" : [ "obj-16", 0 ],
					"source" : [ "obj-15", 1 ]
				}

			}
, 			{
				"patchline" : 				{
					"destination" : [ "obj-18", 1 ],
					"order" : 0,
					"source" : [ "obj-17", 0 ]
				}

			}
, 			{
				"patchline" : 				{
					"destination" : [ "obj-18", 0 ],
					"order" : 1,
					"source" : [ "obj-17", 0 ]
				}

			}
, 			{
				"patchline" : 				{
					"destination" : [ "obj-13", 0 ],
					"source" : [ "obj-2", 0 ]
				}

			}
, 			{
				"patchline" : 				{
					"destination" : [ "obj-35", 0 ],
					"midpoints" : [ 431.752834467120294, 171.5, 629.752834467120351, 171.5 ],
					"order" : 0,
					"source" : [ "obj-20", 0 ]
				}

			}
, 			{
				"patchline" : 				{
					"destination" : [ "obj-57", 0 ],
					"order" : 1,
					"source" : [ "obj-20", 0 ]
				}

			}
, 			{
				"patchline" : 				{
					"destination" : [ "obj-56", 0 ],
					"source" : [ "obj-21", 0 ]
				}

			}
, 			{
				"patchline" : 				{
					"destination" : [ "obj-14", 0 ],
					"source" : [ "obj-23", 0 ]
				}

			}
, 			{
				"patchline" : 				{
					"destination" : [ "obj-18", 0 ],
					"source" : [ "obj-24", 0 ]
				}

			}
, 			{
				"patchline" : 				{
					"destination" : [ "obj-42", 2 ],
					"midpoints" : [ 593.5, 620.5, 593.0, 620.5 ],
					"source" : [ "obj-25", 0 ]
				}

			}
, 			{
				"patchline" : 				{
					"destination" : [ "obj-8", 0 ],
					"source" : [ "obj-26", 0 ]
				}

			}
, 			{
				"patchline" : 				{
					"destination" : [ "obj-15", 0 ],
					"source" : [ "obj-27", 0 ]
				}

			}
, 			{
				"patchline" : 				{
					"destination" : [ "obj-4", 0 ],
					"source" : [ "obj-28", 0 ]
				}

			}
, 			{
				"patchline" : 				{
					"destination" : [ "obj-34", 0 ],
					"source" : [ "obj-30", 0 ]
				}

			}
, 			{
				"patchline" : 				{
					"destination" : [ "obj-57", 0 ],
					"midpoints" : [ 543.247165532880103, 196.33345808383234, 431.752834467120294, 196.33345808383234 ],
					"source" : [ "obj-31", 0 ]
				}

			}
, 			{
				"patchline" : 				{
					"destination" : [ "obj-42", 1 ],
					"midpoints" : [ 22.0, 688.0, 498.0, 688.0 ],
					"source" : [ "obj-34", 0 ]
				}

			}
, 			{
				"patchline" : 				{
					"destination" : [ "obj-43", 0 ],
					"midpoints" : [ 403.0, 565.5, 403.0, 565.5 ],
					"source" : [ "obj-36", 0 ]
				}

			}
, 			{
				"patchline" : 				{
					"destination" : [ "obj-20", 0 ],
					"source" : [ "obj-4", 0 ]
				}

			}
, 			{
				"patchline" : 				{
					"destination" : [ "obj-17", 0 ],
					"source" : [ "obj-42", 0 ]
				}

			}
, 			{
				"patchline" : 				{
					"destination" : [ "obj-42", 0 ],
					"source" : [ "obj-43", 0 ]
				}

			}
, 			{
				"patchline" : 				{
					"destination" : [ "obj-51", 0 ],
					"source" : [ "obj-45", 0 ]
				}

			}
, 			{
				"patchline" : 				{
					"destination" : [ "obj-42", 0 ],
					"midpoints" : [ 475.0, 688.5, 403.0, 688.5 ],
					"source" : [ "obj-49", 0 ]
				}

			}
, 			{
				"patchline" : 				{
					"destination" : [ "obj-22", 0 ],
					"source" : [ "obj-5", 0 ]
				}

			}
, 			{
				"patchline" : 				{
					"destination" : [ "obj-49", 1 ],
					"midpoints" : [ 475.0, 639.5, 506.0, 639.5 ],
					"source" : [ "obj-51", 0 ]
				}

			}
, 			{
				"patchline" : 				{
					"destination" : [ "obj-54", 0 ],
					"source" : [ "obj-56", 0 ]
				}

			}
, 			{
				"patchline" : 				{
					"destination" : [ "obj-25", 0 ],
					"midpoints" : [ 406.0, 507.75, 593.5, 507.75 ],
					"source" : [ "obj-6", 2 ]
				}

			}
, 			{
				"patchline" : 				{
					"destination" : [ "obj-30", 0 ],
					"source" : [ "obj-6", 0 ]
				}

			}
, 			{
				"patchline" : 				{
					"destination" : [ "obj-36", 0 ],
					"midpoints" : [ 214.0, 509.5, 403.0, 509.5 ],
					"source" : [ "obj-6", 1 ]
				}

			}
, 			{
				"patchline" : 				{
					"destination" : [ "obj-38", 0 ],
					"midpoints" : [ 598.0, 500.75, 784.0, 500.75 ],
					"source" : [ "obj-6", 3 ]
				}

			}
, 			{
				"patchline" : 				{
					"destination" : [ "obj-11", 0 ],
					"source" : [ "obj-7", 0 ]
				}

			}
, 			{
				"patchline" : 				{
					"destination" : [ "obj-11", 0 ],
					"source" : [ "obj-8", 0 ]
				}

			}
, 			{
				"patchline" : 				{
					"destination" : [ "obj-35", 0 ],
					"midpoints" : [ 772.24716553287999, 197.0, 629.752834467120351, 197.0 ],
					"source" : [ "obj-9", 0 ]
				}

			}
 ],
		"dependency_cache" : [ 			{
				"name" : "cnmat.loadbang.maxpat",
				"bootpath" : "~/Documents/Max 8/Packages/Music-and-Computing-1.7/patchers/internal",
				"patcherrelativepath" : "../../Documents/Max 8/Packages/Music-and-Computing-1.7/patchers/internal",
				"type" : "JSON",
				"implicit" : 1
			}
, 			{
				"name" : "fit_jweb_to_bounds.js",
				"bootpath" : "C74:/packages/Node for Max/patchers/debug-monitor",
				"type" : "TEXT",
				"implicit" : 1
			}
, 			{
				"name" : "granu_synth.maxpat",
				"bootpath" : "~/workspace/ws-max",
				"patcherrelativepath" : ".",
				"type" : "JSON",
				"implicit" : 1
			}
, 			{
				"name" : "granubuf.pan.gendsp",
				"bootpath" : "~/Documents/Max 8/Packages/Music-and-Computing-1.7/code",
				"patcherrelativepath" : "../../Documents/Max 8/Packages/Music-and-Computing-1.7/code",
				"type" : "gDSP",
				"implicit" : 1
			}
, 			{
				"name" : "lip_synth.maxpat",
				"bootpath" : "~/workspace/ws-max",
				"patcherrelativepath" : ".",
				"type" : "JSON",
				"implicit" : 1
			}
, 			{
				"name" : "max_client.js",
				"bootpath" : "~/workspace/ws-max",
				"patcherrelativepath" : ".",
				"type" : "TEXT",
				"implicit" : 1
			}
, 			{
				"name" : "n4m.monitor.maxpat",
				"bootpath" : "C74:/packages/Node for Max/patchers/debug-monitor",
				"type" : "JSON",
				"implicit" : 1
			}
, 			{
				"name" : "o.change.mxo",
				"type" : "iLaX"
			}
, 			{
				"name" : "o.collect.mxo",
				"type" : "iLaX"
			}
, 			{
				"name" : "o.compose.mxo",
				"type" : "iLaX"
			}
, 			{
				"name" : "o.cond.mxo",
				"type" : "iLaX"
			}
, 			{
				"name" : "o.display.mxo",
				"type" : "iLaX"
			}
, 			{
				"name" : "o.doc.handler.maxpat",
				"bootpath" : "~/Documents/Max 8/Packages/Music-and-Computing-1.7/patchers/internal",
				"patcherrelativepath" : "../../Documents/Max 8/Packages/Music-and-Computing-1.7/patchers/internal",
				"type" : "JSON",
				"implicit" : 1
			}
, 			{
				"name" : "o.expr.codebox.mxo",
				"type" : "iLaX"
			}
, 			{
				"name" : "o.granubuf~.maxpat",
				"bootpath" : "~/Documents/Max 8/Packages/Music-and-Computing-1.7/patchers/sound-engines/samples",
				"patcherrelativepath" : "../../Documents/Max 8/Packages/Music-and-Computing-1.7/patchers/sound-engines/samples",
				"type" : "JSON",
				"implicit" : 1
			}
, 			{
				"name" : "o.pack.mxo",
				"type" : "iLaX"
			}
, 			{
				"name" : "o.prepend.mxo",
				"type" : "iLaX"
			}
, 			{
				"name" : "o.route.mxo",
				"type" : "iLaX"
			}
, 			{
				"name" : "o.select.mxo",
				"type" : "iLaX"
			}
, 			{
				"name" : "o.union.mxo",
				"type" : "iLaX"
			}
, 			{
				"name" : "o.var.mxo",
				"type" : "iLaX"
			}
, 			{
				"name" : "resize_n4m_monitor_patcher.js",
				"bootpath" : "C74:/packages/Node for Max/patchers/debug-monitor",
				"type" : "TEXT",
				"implicit" : 1
			}
, 			{
				"name" : "sine_synth.maxpat",
				"bootpath" : "~/workspace/ws-max",
				"patcherrelativepath" : ".",
				"type" : "JSON",
				"implicit" : 1
			}
, 			{
				"name" : "ws_server.js",
				"bootpath" : "~/workspace/ws-max",
				"patcherrelativepath" : ".",
				"type" : "TEXT",
				"implicit" : 1
			}
 ],
		"autosave" : 0
	}

}
